999
dxflib 3.17.0.0
  0
SECTION
  2
HEADER
  9
$ACADVER
  1
AC1015
  9
$HANDSEED
  5
FFFF
  9
$DIMADEC
 70
0
  9
$DIMASZ
 40
0.18
  9
$DIMAUNIT
 70
0
  9
$DIMAZIN
 70
0
  9
$DIMDEC
 70
4
  9
$DIMDLI
 40
0.36
  9
$DIMDSEP
 70
46
  9
$DIMEXE
 40
0.18
  9
$DIMEXO
 40
0.0625
  9
$DIMGAP
 40
0.09
  9
$DIMLUNIT
 70
2
  9
$DIMSCALE
 40
1.0
  9
$DIMTSZ
 40
0.0
  9
$DIMTXT
 40
0.18
  9
$DIMZIN
 70
0
  9
$DWGCODEPAGE
  3
ANSI_1252
  9
$EXTMAX
 10
1000.0
 20
1000.0
 30
0.0
  9
$EXTMIN
 10
0.0
 20
0.0
 30
0.0
  9
$FILLMODE
 70
0
  9
$INSUNITS
 70
0
  9
$LTSCALE
 40
1.0
  9
$MAXACTVP
 70
64
  9
$MEASUREMENT
 70
1
  9
$PDMODE
 70
0
  9
$PDSIZE
 40
0.0
  9
$SPLFRAME
 70
1
  0
ENDSEC
  0
SECTION
  2
TABLES
  0
TABLE
  2
VPORT
  5
8
100
AcDbSymbolTable
 70
1
  0
VPORT
  5
30
100
AcDbSymbolTableRecord
100
AcDbViewportTableRecord
  2
*Active
 70
0
 10
0.0
 20
0.0
 11
1.0
 21
1.0
 12
286.3055555555554861
 22
148.5
 13
0.0
 23
0.0
 14
10.0
 24
10.0
 15
10.0
 25
10.0
 16
0.0
 26
0.0
 36
1.0
 17
0.0
 27
0.0
 37
0.0
 40
297.0
 41
1.92798353909465
 42
50.0
 43
0.0
 44
0.0
 50
0.0
 51
0.0
 71
0
 72
100
 73
1
 74
3
 75
1
 76
1
 77
0
 78
0
281
0
 65
1
110
0.0
120
0.0
130
0.0
111
1.0
121
0.0
131
0.0
112
0.0
122
1.0
132
0.0
 79
0
146
0.0
  0
ENDTAB
  0
TABLE
  2
LTYPE
  5
5
100
AcDbSymbolTable
 70
41
  0
LTYPE
  5
16
100
AcDbSymbolTableRecord
100
AcDbLinetypeTableRecord
  2
Continuous
 70
0
  3
Solid line
 72
65
 73
0
 40
0.0
  0
LTYPE
  5
31
100
AcDbSymbolTableRecord
100
AcDbLinetypeTableRecord
  2
DASHEDX2
 70
0
  3
Dashed (2x) ____  ____  ____  ____  ____  ___
 72
65
 73
2
 40
38.0999999999999943
 49
25.3999999999999986
 74
0
 49
-12.6999999999999993
 74
0
  0
LTYPE
  5
32
100
AcDbSymbolTableRecord
100
AcDbLinetypeTableRecord
  2
ACAD_ISO07W100
 70
0
  3
ISO dot . . . . . . . . . . . . . . . . . . . . 
 72
65
 73
2
 40
3.0
 49
0.0
 74
0
 49
-3.0
 74
0
  0
LTYPE
  5
33
100
AcDbSymbolTableRecord
100
AcDbLinetypeTableRecord
  2
ACAD_ISO14W100
 70
0
  3
ISO dash triple-dot __ . . . __ . . . __ . . . _
 72
65
 73
8
 40
24.0
 49
12.0
 74
0
 49
-3.0
 74
0
 49
0.0
 74
0
 49
-3.0
 74
0
 49
0.0
 74
0
 49
-3.0
 74
0
 49
0.0
 74
0
 49
-3.0
 74
0
  0
LTYPE
  5
34
100
AcDbSymbolTableRecord
100
AcDbLinetypeTableRecord
  2
ACAD_ISO12W100
 70
0
  3
ISO dash double-dot __ . . __ . . __ . . __ . . 
 72
65
 73
6
 40
21.0
 49
12.0
 74
0
 49
-3.0
 74
0
 49
0.0
 74
0
 49
-3.0
 74
0
 49
0.0
 74
0
 49
-3.0
 74
0
  0
LTYPE
  5
35
100
AcDbSymbolTableRecord
100
AcDbLinetypeTableRecord
  2
HIDDENX2
 70
0
  3
Hidden (2x) ____ ____ ____ ____ ____ ____ ____ 
 72
65
 73
2
 40
19.0499999999999972
 49
12.6999999999999993
 74
0
 49
-6.3499999999999996
 74
0
  0
LTYPE
  5
36
100
AcDbSymbolTableRecord
100
AcDbLinetypeTableRecord
  2
BORDER2
 70
0
  3
Border (.5x) __.__.__.__.__.__.__.__.__.__.__.
 72
65
 73
6
 40
22.2249999999999979
 49
6.3499999999999996
 74
0
 49
-3.1749999999999998
 74
0
 49
6.3499999999999996
 74
0
 49
-3.1749999999999998
 74
0
 49
0.0
 74
0
 49
-3.1749999999999998
 74
0
  0
LTYPE
  5
37
100
AcDbSymbolTableRecord
100
AcDbLinetypeTableRecord
  2
DASHDOT
 70
0
  3
Dash dot __ . __ . __ . __ . __ . __ . __ . __
 72
65
 73
4
 40
25.3999999999999986
 49
12.6999999999999993
 74
0
 49
-6.3499999999999996
 74
0
 49
0.0
 74
0
 49
-6.3499999999999996
 74
0
  0
LTYPE
  5
38
100
AcDbSymbolTableRecord
100
AcDbLinetypeTableRecord
  2
PHANTOM
 70
0
  3
Phantom ______  __  __  ______  __  __  ______ 
 72
65
 73
6
 40
63.5000000000000071
 49
31.75
 74
0
 49
-6.3499999999999996
 74
0
 49
6.3499999999999996
 74
0
 49
-6.3499999999999996
 74
0
 49
6.3499999999999996
 74
0
 49
-6.3499999999999996
 74
0
  0
LTYPE
  5
14
100
AcDbSymbolTableRecord
100
AcDbLinetypeTableRecord
  2
BYBLOCK
 70
0
  3

 72
65
 73
0
 40
0.0
  0
LTYPE
  5
39
100
AcDbSymbolTableRecord
100
AcDbLinetypeTableRecord
  2
PHANTOMX2
 70
0
  3
Phantom (2x) ____________    ____    ____   _
 72
65
 73
6
 40
127.0000000000000142
 49
63.5
 74
0
 49
-12.6999999999999993
 74
0
 49
12.6999999999999993
 74
0
 49
-12.6999999999999993
 74
0
 49
12.6999999999999993
 74
0
 49
-12.6999999999999993
 74
0
  0
LTYPE
  5
3A
100
AcDbSymbolTableRecord
100
AcDbLinetypeTableRecord
  2
ACAD_ISO02W100
 70
0
  3
ISO dash __ __ __ __ __ __ __ __ __ __ __ __ __
 72
65
 73
2
 40
15.0
 49
12.0
 74
0
 49
-3.0
 74
0
  0
LTYPE
  5
3B
100
AcDbSymbolTableRecord
100
AcDbLinetypeTableRecord
  2
DOT2
 70
0
  3
Dot (.5x) ........................................
 72
65
 73
2
 40
3.1749999999999998
 49
0.0
 74
0
 49
-3.1749999999999998
 74
0
  0
LTYPE
  5
3C
100
AcDbSymbolTableRecord
100
AcDbLinetypeTableRecord
  2
ACAD_ISO15W100
 70
0
  3
ISO double-dash triple-dot __ __ . . . __ __ . .
 72
65
 73
10
 40
39.0
 49
12.0
 74
0
 49
-3.0
 74
0
 49
12.0
 74
0
 49
-3.0
 74
0
 49
0.0
 74
0
 49
-3.0
 74
0
 49
0.0
 74
0
 49
-3.0
 74
0
 49
0.0
 74
0
 49
-3.0
 74
0
  0
LTYPE
  5
3D
100
AcDbSymbolTableRecord
100
AcDbLinetypeTableRecord
  2
ACAD_ISO08W100
 70
0
  3
ISO long-dash short-dash ____ __ ____ __ ____ _
 72
65
 73
4
 40
36.0
 49
24.0
 74
0
 49
-3.0
 74
0
 49
6.0
 74
0
 49
-3.0
 74
0
  0
LTYPE
  5
3E
100
AcDbSymbolTableRecord
100
AcDbLinetypeTableRecord
  2
DIVIDE2
 70
0
  3
Divide (.5x) __..__..__..__..__..__..__..__.._
 72
65
 73
6
 40
15.875
 49
6.3499999999999996
 74
0
 49
-3.1749999999999998
 74
0
 49
0.0
 74
0
 49
-3.1749999999999998
 74
0
 49
0.0
 74
0
 49
-3.1749999999999998
 74
0
  0
LTYPE
  5
3F
100
AcDbSymbolTableRecord
100
AcDbLinetypeTableRecord
  2
HIDDEN2
 70
0
  3
Hidden (.5x) _ _ _ _ _ _ _ _ _ _ _ _ _ _ _ _ _ 
 72
65
 73
2
 40
4.7624999999999993
 49
3.1749999999999998
 74
0
 49
-1.5874999999999999
 74
0
  0
LTYPE
  5
40
100
AcDbSymbolTableRecord
100
AcDbLinetypeTableRecord
  2
CENTER
 70
0
  3
Center ____ _ ____ _ ____ _ ____ _ ____ _ ____
 72
65
 73
4
 40
50.8000000000000043
 49
31.75
 74
0
 49
-6.3499999999999996
 74
0
 49
6.3499999999999996
 74
0
 49
-6.3499999999999996
 74
0
  0
LTYPE
  5
41
100
AcDbSymbolTableRecord
100
AcDbLinetypeTableRecord
  2
ACAD_ISO11W100
 70
0
  3
ISO double-dash dot __ __ . __ __ . __ __ . __ _
 72
65
 73
6
 40
33.0
 49
12.0
 74
0
 49
-3.0
 74
0
 49
12.0
 74
0
 49
-3.0
 74
0
 49
0.0
 74
0
 49
-3.0
 74
0
  0
LTYPE
  5
42
100
AcDbSymbolTableRecord
100
AcDbLinetypeTableRecord
  2
CENTER2
 70
0
  3
Center (.5x) ___ _ ___ _ ___ _ ___ _ ___ _ ___
 72
65
 73
4
 40
28.5750000000000028
 49
19.0500000000000007
 74
0
 49
-3.1749999999999998
 74
0
 49
3.1749999999999998
 74
0
 49
-3.1749999999999998
 74
0
  0
LTYPE
  5
43
100
AcDbSymbolTableRecord
100
AcDbLinetypeTableRecord
  2
BORDERX2
 70
0
  3
Border (2x) ____  ____  .  ____  ____  .  ___
 72
65
 73
6
 40
88.8999999999999915
 49
25.3999999999999986
 74
0
 49
-12.6999999999999993
 74
0
 49
25.3999999999999986
 74
0
 49
-12.6999999999999993
 74
0
 49
0.0
 74
0
 49
-12.6999999999999993
 74
0
  0
LTYPE
  5
15
100
AcDbSymbolTableRecord
100
AcDbLinetypeTableRecord
  2
BYLAYER
 70
0
  3

 72
65
 73
0
 40
0.0
  0
LTYPE
  5
44
100
AcDbSymbolTableRecord
100
AcDbLinetypeTableRecord
  2
DASHED2
 70
0
  3
Dashed (.5x) _ _ _ _ _ _ _ _ _ _ _ _ _ _ _ _ _ 
 72
65
 73
2
 40
9.5249999999999986
 49
6.3499999999999996
 74
0
 49
-3.1749999999999998
 74
0
  0
LTYPE
  5
45
100
AcDbSymbolTableRecord
100
AcDbLinetypeTableRecord
  2
ACAD_ISO03W100
 70
0
  3
ISO dash space __    __    __    __    __    __
 72
65
 73
2
 40
30.0
 49
12.0
 74
0
 49
-18.0
 74
0
  0
LTYPE
  5
46
100
AcDbSymbolTableRecord
100
AcDbLinetypeTableRecord
  2
ACAD_ISO10W100
 70
0
  3
ISO dash dot __ . __ . __ . __ . __ . __ . __ . 
 72
65
 73
4
 40
18.0
 49
12.0
 74
0
 49
-3.0
 74
0
 49
0.0
 74
0
 49
-3.0
 74
0
  0
LTYPE
  5
47
100
AcDbSymbolTableRecord
100
AcDbLinetypeTableRecord
  2
DASHDOT2
 70
0
  3
Dash dot (.5x) _._._._._._._._._._._._._._._.
 72
65
 73
4
 40
12.6999999999999993
 49
6.3499999999999996
 74
0
 49
-3.1749999999999998
 74
0
 49
0.0
 74
0
 49
-3.1749999999999998
 74
0
  0
LTYPE
  5
48
100
AcDbSymbolTableRecord
100
AcDbLinetypeTableRecord
  2
BORDER
 70
0
  3
Border __ __ . __ __ . __ __ . __ __ . __ __ .
 72
65
 73
6
 40
44.4499999999999957
 49
12.6999999999999993
 74
0
 49
-6.3499999999999996
 74
0
 49
12.6999999999999993
 74
0
 49
-6.3499999999999996
 74
0
 49
0.0
 74
0
 49
-6.3499999999999996
 74
0
  0
LTYPE
  5
49
100
AcDbSymbolTableRecord
100
AcDbLinetypeTableRecord
  2
PHANTOM2
 70
0
  3
Phantom (.5x) ___ _ _ ___ _ _ ___ _ _ ___ _ _
 72
65
 73
6
 40
31.7500000000000036
 49
15.875
 74
0
 49
-3.1749999999999998
 74
0
 49
3.1749999999999998
 74
0
 49
-3.1749999999999998
 74
0
 49
3.1749999999999998
 74
0
 49
-3.1749999999999998
 74
0
  0
LTYPE
  5
4A
100
AcDbSymbolTableRecord
100
AcDbLinetypeTableRecord
  2
DIVIDEX2
 70
0
  3
Divide (2x) ________  .  .  ________  .  .  _
 72
65
 73
6
 40
63.5
 49
25.3999999999999986
 74
0
 49
-12.6999999999999993
 74
0
 49
0.0
 74
0
 49
-12.6999999999999993
 74
0
 49
0.0
 74
0
 49
-12.6999999999999993
 74
0
  0
LTYPE
  5
4B
100
AcDbSymbolTableRecord
100
AcDbLinetypeTableRecord
  2
DIVIDE
 70
0
  3
Divide ____ . . ____ . . ____ . . ____ . . ____
 72
65
 73
6
 40
31.75
 49
12.6999999999999993
 74
0
 49
-6.3499999999999996
 74
0
 49
0.0
 74
0
 49
-6.3499999999999996
 74
0
 49
0.0
 74
0
 49
-6.3499999999999996
 74
0
  0
LTYPE
  5
4C
100
AcDbSymbolTableRecord
100
AcDbLinetypeTableRecord
  2
ACAD_ISO04W100
 70
0
  3
ISO long-dash dot ____ . ____ . ____ . ____ . _
 72
65
 73
4
 40
30.0
 49
24.0
 74
0
 49
-3.0
 74
0
 49
0.0
 74
0
 49
-3.0
 74
0
  0
LTYPE
  5
4D
100
AcDbSymbolTableRecord
100
AcDbLinetypeTableRecord
  2
DASHED
 70
0
  3
Dashed __ __ __ __ __ __ __ __ __ __ __ __ __ _
 72
65
 73
2
 40
19.0499999999999972
 49
12.6999999999999993
 74
0
 49
-6.3499999999999996
 74
0
  0
LTYPE
  5
4E
100
AcDbSymbolTableRecord
100
AcDbLinetypeTableRecord
  2
CENTERX2
 70
0
  3
Center (2x) ________  __  ________  __  _____
 72
65
 73
4
 40
101.6000000000000085
 49
63.5
 74
0
 49
-12.6999999999999993
 74
0
 49
12.6999999999999993
 74
0
 49
-12.6999999999999993
 74
0
  0
LTYPE
  5
4F
100
AcDbSymbolTableRecord
100
AcDbLinetypeTableRecord
  2
ACAD_ISO05W100
 70
0
  3
ISO long-dash double-dot ____ .. ____ .. ____ . 
 72
65
 73
6
 40
33.0
 49
24.0
 74
0
 49
-3.0
 74
0
 49
0.0
 74
0
 49
-3.0
 74
0
 49
0.0
 74
0
 49
-3.0
 74
0
  0
LTYPE
  5
50
100
AcDbSymbolTableRecord
100
AcDbLinetypeTableRecord
  2
ACAD_ISO13W100
 70
0
  3
ISO double-dash double-dot __ __ . . __ __ . . _
 72
65
 73
8
 40
36.0
 49
12.0
 74
0
 49
-3.0
 74
0
 49
12.0
 74
0
 49
-3.0
 74
0
 49
0.0
 74
0
 49
-3.0
 74
0
 49
0.0
 74
0
 49
-3.0
 74
0
  0
LTYPE
  5
51
100
AcDbSymbolTableRecord
100
AcDbLinetypeTableRecord
  2
DASHDOTX2
 70
0
  3
Dash dot (2x) ____  .  ____  .  ____  .  ___
 72
65
 73
4
 40
50.7999999999999972
 49
25.3999999999999986
 74
0
 49
-12.6999999999999993
 74
0
 49
0.0
 74
0
 49
-12.6999999999999993
 74
0
  0
LTYPE
  5
52
100
AcDbSymbolTableRecord
100
AcDbLinetypeTableRecord
  2
DOT
 70
0
  3
Dot . . . . . . . . . . . . . . . . . . . . . . . .
 72
65
 73
2
 40
6.3499999999999996
 49
0.0
 74
0
 49
-6.3499999999999996
 74
0
  0
LTYPE
  5
53
100
AcDbSymbolTableRecord
100
AcDbLinetypeTableRecord
  2
ACAD_ISO09W100
 70
0
  3
ISO long-dash double-short-dash ____ __ __ ____
 72
65
 73
6
 40
45.0
 49
24.0
 74
0
 49
-3.0
 74
0
 49
6.0
 74
0
 49
-3.0
 74
0
 49
6.0
 74
0
 49
-3.0
 74
0
  0
LTYPE
  5
54
100
AcDbSymbolTableRecord
100
AcDbLinetypeTableRecord
  2
DOTX2
 70
0
  3
Dot (2x) .  .  .  .  .  .  .  .  .  .  .  .  .  .
 72
65
 73
2
 40
12.6999999999999993
 49
0.0
 74
0
 49
-12.6999999999999993
 74
0
  0
LTYPE
  5
55
100
AcDbSymbolTableRecord
100
AcDbLinetypeTableRecord
  2
ACAD_ISO06W100
 70
0
  3
ISO long-dash triple-dot ____ ... ____ ... ____
 72
65
 73
8
 40
36.0
 49
24.0
 74
0
 49
-3.0
 74
0
 49
0.0
 74
0
 49
-3.0
 74
0
 49
0.0
 74
0
 49
-3.0
 74
0
 49
0.0
 74
0
 49
-3.0
 74
0
  0
LTYPE
  5
56
100
AcDbSymbolTableRecord
100
AcDbLinetypeTableRecord
  2
HIDDEN
 70
0
  3
Hidden __ __ __ __ __ __ __ __ __ __ __ __ __ __
 72
65
 73
2
 40
9.5249999999999986
 49
6.3499999999999996
 74
0
 49
-3.1749999999999998
 74
0
  0
ENDTAB
  0
TABLE
  2
LAYER
  5
2
100
AcDbSymbolTable
 70
1
  0
LAYER
  5
10
100
AcDbSymbolTableRecord
100
AcDbLayerTableRecord
  2
0
 70
0
 62
7
420
16777215
  6
Continuous
370
5
390
F
  0
ENDTAB
  0
TABLE
  2
STYLE
  5
3
100
AcDbSymbolTable
 70
1
  0
STYLE
  5
57
100
AcDbSymbolTableRecord
100
AcDbTextStyleTableRecord
  2
Standard
 70
0
 40
0.0
 41
1.0
 50
0.0
 71
0
 42
2.5
  3

  4

1001
ACAD
1000
txt
1071
0
  0
ENDTAB
  0
TABLE
  2
VIEW
  5
6
100
AcDbSymbolTable
 70
0
  0
ENDTAB
  0
TABLE
  2
UCS
  5
7
100
AcDbSymbolTable
 70
0
  0
ENDTAB
  0
TABLE
  2
APPID
  5
9
100
AcDbSymbolTable
 70
1
  0
APPID
  5
12
100
AcDbSymbolTableRecord
100
AcDbRegAppTableRecord
  2
ACAD
 70
0
  0
APPID
  5
58
100
AcDbSymbolTableRecord
100
AcDbRegAppTableRecord
  2
QCAD
 70
0
  0
ENDTAB
  0
TABLE
  2
DIMSTYLE
  5
A
100
AcDbSymbolTable
 70
1
100
AcDbDimStyleTable
 71
0
  0
DIMSTYLE
105
27
100
AcDbSymbolTableRecord
100
AcDbDimStyleTableRecord
  2
Standard
 41
0.18
 42
0.0625
 43
3.75
 44
0.18
 70
0
 73
0
 74
0
 77
1
 78
8
140
0.18
141
2.5
143
0.03937007874016
147
0.09
171
3
172
1
271
2
272
2
274
3
278
44
283
0
284
8
340
57
  0
ENDTAB
  0
TABLE
  2
BLOCK_RECORD
  5
1
100
AcDbSymbolTable
 70
1
  0
BLOCK_RECORD
  5
1F
100
AcDbSymbolTableRecord
100
AcDbBlockTableRecord
  2
*Model_Space
340
22
  0
BLOCK_RECORD
  5
1B
100
AcDbSymbolTableRecord
100
AcDbBlockTableRecord
  2
*Paper_Space
340
1E
  0
BLOCK_RECORD
  5
23
100
AcDbSymbolTableRecord
100
AcDbBlockTableRecord
  2
*Paper_Space0
340
26
  0
ENDTAB
  0
ENDSEC
  0
SECTION
  2
BLOCKS
  0
BLOCK
  5
20
100
AcDbEntity
  8
0
100
AcDbBlockBegin
  2
*Model_Space
 70
0
 10
0.0
 20
0.0
 30
0.0
  3
*Model_Space
  1

  0
ENDBLK
  5
21
100
AcDbEntity
  8
0
100
AcDbBlockEnd
  0
BLOCK
  5
1C
100
AcDbEntity
 67
1
  8
0
100
AcDbBlockBegin
  2
*Paper_Space
 70
0
 10
0.0
 20
0.0
 30
0.0
  3
*Paper_Space
  1

  0
ENDBLK
  5
1D
100
AcDbEntity
 67
1
  8
0
100
AcDbBlockEnd
  0
BLOCK
  5
24
100
AcDbEntity
  8
0
100
AcDbBlockBegin
  2
*Paper_Space0
 70
0
 10
0.0
 20
0.0
 30
0.0
  3
*Paper_Space0
  1

  0
ENDBLK
  5
25
100
AcDbEntity
  8
0
100
AcDbBlockEnd
  0
ENDSEC
  0
SECTION
  2
ENTITIES
  0
LINE
  5
59
100
AcDbEntity
  8
0
 62
0
370
-1
 48
1.0
  6
BYLAYER
100
AcDbLine
 10
124.2120000000000033
 20
16.8450999999999986
 30
0.0
 11
124.2120000000000033
 21
12.1447000000000003
 31
0.0
  0
LINE
  5
5A
100
AcDbEntity
  8
0
 62
0
370
-1
 48
1.0
  6
BYLAYER
100
AcDbLine
 10
124.2120000000000033
 20
12.1447000000000003
 30
0.0
 11
122.5379999999999967
 21
12.1447000000000003
 31
0.0
  0
LINE
  5
5B
100
AcDbEntity
  8
0
 62
0
370
-1
 48
1.0
  6
BYLAYER
100
AcDbLine
 10
122.5379999999999967
 20
12.1447000000000003
 30
0.0
 11
122.5379999999999967
 21
15.3748000000000005
 31
0.0
  0
LINE
  5
5C
100
AcDbEntity
  8
0
 62
0
370
-1
 48
1.0
  6
BYLAYER
100
AcDbLine
 10
122.5379999999999967
 20
15.3748000000000005
 30
0.0
 11
120.8130000000000024
 21
15.3748000000000005
 31
0.0
  0
LINE
  5
5D
100
AcDbEntity
  8
0
 62
0
370
-1
 48
1.0
  6
BYLAYER
100
AcDbLine
 10
120.8130000000000024
 20
15.3748000000000005
 30
0.0
 11
120.8130000000000024
 21
16.295300000000001
 31
0.0
  0
LINE
  5
5E
100
AcDbEntity
  8
0
 62
0
370
-1
 48
1.0
  6
BYLAYER
100
AcDbLine
 10
120.8130000000000024
 20
16.295300000000001
 30
0.0
 11
117.6620000000000061
 21
16.295300000000001
 31
0.0
  0
LINE
  5
5F
100
AcDbEntity
  8
0
 62
0
370
-1
 48
1.0
  6
BYLAYER
100
AcDbLine
 10
117.6620000000000061
 20
16.295300000000001
 30
0.0
 11
117.6620000000000061
 21
15.3748000000000005
 31
0.0
  0
LINE
  5
60
100
AcDbEntity
  8
0
 62
0
370
-1
 48
1.0
  6
BYLAYER
100
AcDbLine
 10
117.6620000000000061
 20
15.3748000000000005
 30
0.0
 11
115.9369999999999976
 21
15.3748000000000005
 31
0.0
  0
LINE
  5
61
100
AcDbEntity
  8
0
 62
0
370
-1
 48
1.0
  6
BYLAYER
100
AcDbLine
 10
115.9369999999999976
 20
15.3748000000000005
 30
0.0
 11
115.9369999999999976
 21
12.1447000000000003
 31
0.0
  0
LINE
  5
62
100
AcDbEntity
  8
0
 62
0
370
-1
 48
1.0
  6
BYLAYER
100
AcDbLine
 10
115.9369999999999976
 20
12.1447000000000003
 30
0.0
 11
115.1129999999999995
 21
12.1447000000000003
 31
0.0
  0
LINE
  5
63
100
AcDbEntity
  8
0
 62
0
370
-1
 48
1.0
  6
BYLAYER
100
AcDbLine
 10
115.1129999999999995
 20
12.1447000000000003
 30
0.0
 11
115.1129999999999995
 21
9.4960699999999996
 31
0.0
  0
LINE
  5
64
100
AcDbEntity
  8
0
 62
0
370
-1
 48
1.0
  6
BYLAYER
100
AcDbLine
 10
115.1129999999999995
 20
9.4960699999999996
 30
0.0
 11
115.9369999999999976
 21
9.4960699999999996
 31
0.0
  0
LINE
  5
65
100
AcDbEntity
  8
0
 62
0
370
-1
 48
1.0
  6
BYLAYER
100
AcDbLine
 10
115.9369999999999976
 20
9.4960699999999996
 30
0.0
 11
115.9369999999999976
 21
3.2259899999999999
 31
0.0
  0
LINE
  5
66
100
AcDbEntity
  8
0
 62
0
370
-1
 48
1.0
  6
BYLAYER
100
AcDbLine
 10
115.9369999999999976
 20
3.2259899999999999
 30
0.0
 11
117.6620000000000061
 21
3.2259899999999999
 31
0.0
  0
LINE
  5
67
100
AcDbEntity
  8
0
 62
0
370
-1
 48
1.0
  6
BYLAYER
100
AcDbLine
 10
117.6620000000000061
 20
3.2259899999999999
 30
0.0
 11
117.6620000000000061
 21
2.2462
 31
0.0
  0
LINE
  5
68
100
AcDbEntity
  8
0
 62
0
370
-1
 48
1.0
  6
BYLAYER
100
AcDbLine
 10
117.6620000000000061
 20
2.2462
 30
0.0
 11
120.8130000000000024
 21
2.2462
 31
0.0
  0
LINE
  5
69
100
AcDbEntity
  8
0
 62
0
370
-1
 48
1.0
  6
BYLAYER
100
AcDbLine
 10
120.8130000000000024
 20
2.2462
 30
0.0
 11
120.8130000000000024
 21
3.2259899999999999
 31
0.0
  0
LINE
  5
6A
100
AcDbEntity
  8
0
 62
0
370
-1
 48
1.0
  6
BYLAYER
100
AcDbLine
 10
120.8130000000000024
 20
3.2259899999999999
 30
0.0
 11
122.5379999999999967
 21
3.2259899999999999
 31
0.0
  0
LINE
  5
6B
100
AcDbEntity
  8
0
 62
0
370
-1
 48
1.0
  6
BYLAYER
100
AcDbLine
 10
122.5379999999999967
 20
3.2259899999999999
 30
0.0
 11
122.5379999999999967
 21
7.6963400000000002
 31
0.0
  0
LINE
  5
6C
100
AcDbEntity
  8
0
 62
0
370
-1
 48
1.0
  6
BYLAYER
100
AcDbLine
 10
122.5379999999999967
 20
7.6963400000000002
 30
0.0
 11
124.2120000000000033
 21
7.6963400000000002
 31
0.0
  0
LINE
  5
6D
100
AcDbEntity
  8
0
 62
0
370
-1
 48
1.0
  6
BYLAYER
100
AcDbLine
 10
124.2120000000000033
 20
7.6963400000000002
 30
0.0
 11
124.2120000000000033
 21
2.99586
 31
0.0
  0
LINE
  5
6E
100
AcDbEntity
  8
0
 62
0
370
-1
 48
1.0
  6
BYLAYER
100
AcDbLine
 10
124.2120000000000033
 20
2.99586
 30
0.0
 11
138.0629999999999882
 21
2.99586
 31
0.0
  0
LINE
  5
6F
100
AcDbEntity
  8
0
 62
0
370
-1
 48
1.0
  6
BYLAYER
100
AcDbLine
 10
138.0629999999999882
 20
2.99586
 30
0.0
 11
138.0629999999999882
 21
7.6963400000000002
 31
0.0
  0
LINE
  5
70
100
AcDbEntity
  8
0
 62
0
370
-1
 48
1.0
  6
BYLAYER
100
AcDbLine
 10
138.0629999999999882
 20
7.6963400000000002
 30
0.0
 11
139.7369999999999948
 21
7.6963400000000002
 31
0.0
  0
LINE
  5
71
100
AcDbEntity
  8
0
 62
0
370
-1
 48
1.0
  6
BYLAYER
100
AcDbLine
 10
139.7369999999999948
 20
7.6963400000000002
 30
0.0
 11
139.7369999999999948
 21
3.2259899999999999
 31
0.0
  0
LINE
  5
72
100
AcDbEntity
  8
0
 62
0
370
-1
 48
1.0
  6
BYLAYER
100
AcDbLine
 10
139.7369999999999948
 20
3.2259899999999999
 30
0.0
 11
141.4619999999999891
 21
3.2259899999999999
 31
0.0
  0
LINE
  5
73
100
AcDbEntity
  8
0
 62
0
370
-1
 48
1.0
  6
BYLAYER
100
AcDbLine
 10
141.4619999999999891
 20
3.2259899999999999
 30
0.0
 11
141.4619999999999891
 21
2.2462
 31
0.0
  0
LINE
  5
74
100
AcDbEntity
  8
0
 62
0
370
-1
 48
1.0
  6
BYLAYER
100
AcDbLine
 10
141.4619999999999891
 20
2.2462
 30
0.0
 11
144.6129999999999995
 21
2.2462
 31
0.0
  0
LINE
  5
75
100
AcDbEntity
  8
0
 62
0
370
-1
 48
1.0
  6
BYLAYER
100
AcDbLine
 10
144.6129999999999995
 20
2.2462
 30
0.0
 11
144.6129999999999995
 21
3.2259899999999999
 31
0.0
  0
LINE
  5
76
100
AcDbEntity
  8
0
 62
0
370
-1
 48
1.0
  6
BYLAYER
100
AcDbLine
 10
144.6129999999999995
 20
3.2259899999999999
 30
0.0
 11
146.3379999999999939
 21
3.2259899999999999
 31
0.0
  0
LINE
  5
77
100
AcDbEntity
  8
0
 62
0
370
-1
 48
1.0
  6
BYLAYER
100
AcDbLine
 10
146.3379999999999939
 20
3.2259899999999999
 30
0.0
 11
146.3379999999999939
 21
9.4960699999999996
 31
0.0
  0
LINE
  5
78
100
AcDbEntity
  8
0
 62
0
370
-1
 48
1.0
  6
BYLAYER
100
AcDbLine
 10
146.3379999999999939
 20
9.4960699999999996
 30
0.0
 11
147.1620000000000061
 21
9.4960699999999996
 31
0.0
  0
LINE
  5
79
100
AcDbEntity
  8
0
 62
0
370
-1
 48
1.0
  6
BYLAYER
100
AcDbLine
 10
147.1620000000000061
 20
9.4960699999999996
 30
0.0
 11
147.1620000000000061
 21
12.1447000000000003
 31
0.0
  0
LINE
  5
7A
100
AcDbEntity
  8
0
 62
0
370
-1
 48
1.0
  6
BYLAYER
100
AcDbLine
 10
147.1620000000000061
 20
12.1447000000000003
 30
0.0
 11
146.3379999999999939
 21
12.1447000000000003
 31
0.0
  0
LINE
  5
7B
100
AcDbEntity
  8
0
 62
0
370
-1
 48
1.0
  6
BYLAYER
100
AcDbLine
 10
146.3379999999999939
 20
12.1447000000000003
 30
0.0
 11
146.3379999999999939
 21
15.3748000000000005
 31
0.0
  0
LINE
  5
7C
100
AcDbEntity
  8
0
 62
0
370
-1
 48
1.0
  6
BYLAYER
100
AcDbLine
 10
146.3379999999999939
 20
15.3748000000000005
 30
0.0
 11
144.6129999999999995
 21
15.3748000000000005
 31
0.0
  0
LINE
  5
7D
100
AcDbEntity
  8
0
 62
0
370
-1
 48
1.0
  6
BYLAYER
100
AcDbLine
 10
144.6129999999999995
 20
15.3748000000000005
 30
0.0
 11
144.6129999999999995
 21
16.295300000000001
 31
0.0
  0
LINE
  5
7E
100
AcDbEntity
  8
0
 62
0
370
-1
 48
1.0
  6
BYLAYER
100
AcDbLine
 10
144.6129999999999995
 20
16.295300000000001
 30
0.0
 11
141.4619999999999891
 21
16.295300000000001
 31
0.0
  0
LINE
  5
7F
100
AcDbEntity
  8
0
 62
0
370
-1
 48
1.0
  6
BYLAYER
100
AcDbLine
 10
141.4619999999999891
 20
16.295300000000001
 30
0.0
 11
141.4619999999999891
 21
15.3748000000000005
 31
0.0
  0
LINE
  5
80
100
AcDbEntity
  8
0
 62
0
370
-1
 48
1.0
  6
BYLAYER
100
AcDbLine
 10
141.4619999999999891
 20
15.3748000000000005
 30
0.0
 11
139.7369999999999948
 21
15.3748000000000005
 31
0.0
  0
LINE
  5
81
100
AcDbEntity
  8
0
 62
0
370
-1
 48
1.0
  6
BYLAYER
100
AcDbLine
 10
139.7369999999999948
 20
15.3748000000000005
 30
0.0
 11
139.7369999999999948
 21
12.1447000000000003
 31
0.0
  0
LINE
  5
82
100
AcDbEntity
  8
0
 62
0
370
-1
 48
1.0
  6
BYLAYER
100
AcDbLine
 10
139.7369999999999948
 20
12.1447000000000003
 30
0.0
 11
138.0629999999999882
 21
12.1447000000000003
 31
0.0
  0
LINE
  5
83
100
AcDbEntity
  8
0
 62
0
370
-1
 48
1.0
  6
BYLAYER
100
AcDbLine
 10
138.0629999999999882
 20
12.1447000000000003
 30
0.0
 11
138.0629999999999882
 21
16.8450999999999986
 31
0.0
  0
LINE
  5
84
100
AcDbEntity
  8
0
 62
0
370
-1
 48
1.0
  6
BYLAYER
100
AcDbLine
 10
138.0629999999999882
 20
16.8450999999999986
 30
0.0
 11
124.2120000000000033
 21
16.8450999999999986
 31
0.0
  0
LINE
  5
85
100
AcDbEntity
  8
0
 62
0
370
-1
 48
1.0
  6
BYLAYER
100
AcDbLine
 10
269.4700000000000273
 20
16.8450999999999986
 30
0.0
 11
283.3190000000000168
 21
16.8450999999999986
 31
0.0
  0
LINE
  5
86
100
AcDbEntity
  8
0
 62
0
370
-1
 48
1.0
  6
BYLAYER
100
AcDbLine
 10
283.3190000000000168
 20
16.8450999999999986
 30
0.0
 11
283.3190000000000168
 21
2.99586
 31
0.0
  0
LINE
  5
87
100
AcDbEntity
  8
0
 62
0
370
-1
 48
1.0
  6
BYLAYER
100
AcDbLine
 10
283.3190000000000168
 20
2.99586
 30
0.0
 11
269.4700000000000273
 21
2.99586
 31
0.0
  0
LINE
  5
88
100
AcDbEntity
  8
0
 62
0
370
-1
 48
1.0
  6
BYLAYER
100
AcDbLine
 10
269.4700000000000273
 20
2.99586
 30
0.0
 11
269.4700000000000273
 21
16.8450999999999986
 31
0.0
  0
LINE
  5
89
100
AcDbEntity
  8
0
 62
0
370
-1
 48
1.0
  6
BYLAYER
100
AcDbLine
 10
250.4199999999999875
 20
16.8450999999999986
 30
0.0
 11
264.2690000000000055
 21
16.8450999999999986
 31
0.0
  0
LINE
  5
8A
100
AcDbEntity
  8
0
 62
0
370
-1
 48
1.0
  6
BYLAYER
100
AcDbLine
 10
264.2690000000000055
 20
16.8450999999999986
 30
0.0
 11
264.2690000000000055
 21
2.99586
 31
0.0
  0
LINE
  5
8B
100
AcDbEntity
  8
0
 62
0
370
-1
 48
1.0
  6
BYLAYER
100
AcDbLine
 10
264.2690000000000055
 20
2.99586
 30
0.0
 11
250.4199999999999875
 21
2.99586
 31
0.0
  0
LINE
  5
8C
100
AcDbEntity
  8
0
 62
0
370
-1
 48
1.0
  6
BYLAYER
100
AcDbLine
 10
250.4199999999999875
 20
2.99586
 30
0.0
 11
250.4199999999999875
 21
16.8450999999999986
 31
0.0
  0
LINE
  5
8D
100
AcDbEntity
  8
0
 62
0
370
-1
 48
1.0
  6
BYLAYER
100
AcDbLine
 10
231.3689999999999998
 20
16.8450999999999986
 30
0.0
 11
245.2189999999999941
 21
16.8450999999999986
 31
0.0
  0
LINE
  5
8E
100
AcDbEntity
  8
0
 62
0
370
-1
 48
1.0
  6
BYLAYER
100
AcDbLine
 10
245.2189999999999941
 20
16.8450999999999986
 30
0.0
 11
245.2189999999999941
 21
2.99586
 31
0.0
  0
LINE
  5
8F
100
AcDbEntity
  8
0
 62
0
370
-1
 48
1.0
  6
BYLAYER
100
AcDbLine
 10
245.2189999999999941
 20
2.99586
 30
0.0
 11
231.3689999999999998
 21
2.99586
 31
0.0
  0
LINE
  5
90
100
AcDbEntity
  8
0
 62
0
370
-1
 48
1.0
  6
BYLAYER
100
AcDbLine
 10
231.3689999999999998
 20
2.99586
 30
0.0
 11
231.3689999999999998
 21
16.8450999999999986
 31
0.0
  0
LINE
  5
91
100
AcDbEntity
  8
0
 62
0
370
-1
 48
1.0
  6
BYLAYER
100
AcDbLine
 10
212.3189999999999884
 20
16.8450999999999986
 30
0.0
 11
226.1690000000000111
 21
16.8450999999999986
 31
0.0
  0
LINE
  5
92
100
AcDbEntity
  8
0
 62
0
370
-1
 48
1.0
  6
BYLAYER
100
AcDbLine
 10
226.1690000000000111
 20
16.8450999999999986
 30
0.0
 11
226.1690000000000111
 21
2.99586
 31
0.0
  0
LINE
  5
93
100
AcDbEntity
  8
0
 62
0
370
-1
 48
1.0
  6
BYLAYER
100
AcDbLine
 10
226.1690000000000111
 20
2.99586
 30
0.0
 11
212.3189999999999884
 21
2.99586
 31
0.0
  0
LINE
  5
94
100
AcDbEntity
  8
0
 62
0
370
-1
 48
1.0
  6
BYLAYER
100
AcDbLine
 10
212.3189999999999884
 20
2.99586
 30
0.0
 11
212.3189999999999884
 21
16.8450999999999986
 31
0.0
  0
LINE
  5
95
100
AcDbEntity
  8
0
 62
0
370
-1
 48
1.0
  6
BYLAYER
100
AcDbLine
 10
183.7439999999999998
 20
16.8450999999999986
 30
0.0
 11
197.5939999999999941
 21
16.8450999999999986
 31
0.0
  0
LINE
  5
96
100
AcDbEntity
  8
0
 62
0
370
-1
 48
1.0
  6
BYLAYER
100
AcDbLine
 10
197.5939999999999941
 20
16.8450999999999986
 30
0.0
 11
197.5939999999999941
 21
2.99586
 31
0.0
  0
LINE
  5
97
100
AcDbEntity
  8
0
 62
0
370
-1
 48
1.0
  6
BYLAYER
100
AcDbLine
 10
197.5939999999999941
 20
2.99586
 30
0.0
 11
183.7439999999999998
 21
2.99586
 31
0.0
  0
LINE
  5
98
100
AcDbEntity
  8
0
 62
0
370
-1
 48
1.0
  6
BYLAYER
100
AcDbLine
 10
183.7439999999999998
 20
2.99586
 30
0.0
 11
183.7439999999999998
 21
16.8450999999999986
 31
0.0
  0
LINE
  5
99
100
AcDbEntity
  8
0
 62
0
370
-1
 48
1.0
  6
BYLAYER
100
AcDbLine
 10
162.3120000000000118
 20
16.8450999999999986
 30
0.0
 11
176.1630000000000109
 21
16.8450999999999986
 31
0.0
  0
LINE
  5
9A
100
AcDbEntity
  8
0
 62
0
370
-1
 48
1.0
  6
BYLAYER
100
AcDbLine
 10
176.1630000000000109
 20
16.8450999999999986
 30
0.0
 11
176.1630000000000109
 21
2.99586
 31
0.0
  0
LINE
  5
9B
100
AcDbEntity
  8
0
 62
0
370
-1
 48
1.0
  6
BYLAYER
100
AcDbLine
 10
176.1630000000000109
 20
2.99586
 30
0.0
 11
162.3120000000000118
 21
2.99586
 31
0.0
  0
LINE
  5
9C
100
AcDbEntity
  8
0
 62
0
370
-1
 48
1.0
  6
BYLAYER
100
AcDbLine
 10
162.3120000000000118
 20
2.99586
 30
0.0
 11
162.3120000000000118
 21
16.8450999999999986
 31
0.0
  0
LINE
  5
9D
100
AcDbEntity
  8
0
 62
0
370
-1
 48
1.0
  6
BYLAYER
100
AcDbLine
 10
86.1123999999999938
 20
16.8450999999999986
 30
0.0
 11
99.9628000000000014
 21
16.8450999999999986
 31
0.0
  0
LINE
  5
9E
100
AcDbEntity
  8
0
 62
0
370
-1
 48
1.0
  6
BYLAYER
100
AcDbLine
 10
99.9628000000000014
 20
16.8450999999999986
 30
0.0
 11
99.9628000000000014
 21
2.99586
 31
0.0
  0
LINE
  5
9F
100
AcDbEntity
  8
0
 62
0
370
-1
 48
1.0
  6
BYLAYER
100
AcDbLine
 10
99.9628000000000014
 20
2.99586
 30
0.0
 11
86.1123999999999938
 21
2.99586
 31
0.0
  0
LINE
  5
A0
100
AcDbEntity
  8
0
 62
0
370
-1
 48
1.0
  6
BYLAYER
100
AcDbLine
 10
86.1123999999999938
 20
2.99586
 30
0.0
 11
86.1123999999999938
 21
16.8450999999999986
 31
0.0
  0
LINE
  5
A1
100
AcDbEntity
  8
0
 62
0
370
-1
 48
1.0
  6
BYLAYER
100
AcDbLine
 10
64.6811000000000007
 20
16.8450999999999986
 30
0.0
 11
78.5314999999999941
 21
16.8450999999999986
 31
0.0
  0
LINE
  5
A2
100
AcDbEntity
  8
0
 62
0
370
-1
 48
1.0
  6
BYLAYER
100
AcDbLine
 10
78.5314999999999941
 20
16.8450999999999986
 30
0.0
 11
78.5314999999999941
 21
2.99586
 31
0.0
  0
LINE
  5
A3
100
AcDbEntity
  8
0
 62
0
370
-1
 48
1.0
  6
BYLAYER
100
AcDbLine
 10
78.5314999999999941
 20
2.99586
 30
0.0
 11
64.6811000000000007
 21
2.99586
 31
0.0
  0
LINE
  5
A4
100
AcDbEntity
  8
0
 62
0
370
-1
 48
1.0
  6
BYLAYER
100
AcDbLine
 10
64.6811000000000007
 20
2.99586
 30
0.0
 11
64.6811000000000007
 21
16.8450999999999986
 31
0.0
  0
LINE
  5
A5
100
AcDbEntity
  8
0
 62
0
370
-1
 48
1.0
  6
BYLAYER
100
AcDbLine
 10
33.7261000000000024
 20
16.8450999999999986
 30
0.0
 11
47.5752999999999986
 21
16.8450999999999986
 31
0.0
  0
LINE
  5
A6
100
AcDbEntity
  8
0
 62
0
370
-1
 48
1.0
  6
BYLAYER
100
AcDbLine
 10
47.5752999999999986
 20
16.8450999999999986
 30
0.0
 11
47.5752999999999986
 21
2.99586
 31
0.0
  0
LINE
  5
A7
100
AcDbEntity
  8
0
 62
0
370
-1
 48
1.0
  6
BYLAYER
100
AcDbLine
 10
47.5752999999999986
 20
2.99586
 30
0.0
 11
33.7261000000000024
 21
2.99586
 31
0.0
  0
LINE
  5
A8
100
AcDbEntity
  8
0
 62
0
370
-1
 48
1.0
  6
BYLAYER
100
AcDbLine
 10
33.7261000000000024
 20
2.99586
 30
0.0
 11
33.7261000000000024
 21
16.8450999999999986
 31
0.0
  0
LINE
  5
A9
100
AcDbEntity
  8
0
 62
0
370
-1
 48
1.0
  6
BYLAYER
100
AcDbLine
 10
252.8009999999999877
 20
35.8950999999999993
 30
0.0
 11
252.8009999999999877
 21
31.194700000000001
 31
0.0
  0
LINE
  5
AA
100
AcDbEntity
  8
0
 62
0
370
-1
 48
1.0
  6
BYLAYER
100
AcDbLine
 10
252.8009999999999877
 20
31.194700000000001
 30
0.0
 11
251.1260000000000048
 21
31.194700000000001
 31
0.0
  0
LINE
  5
AB
100
AcDbEntity
  8
0
 62
0
370
-1
 48
1.0
  6
BYLAYER
100
AcDbLine
 10
251.1260000000000048
 20
31.194700000000001
 30
0.0
 11
251.1260000000000048
 21
34.4247999999999976
 31
0.0
  0
LINE
  5
AC
100
AcDbEntity
  8
0
 62
0
370
-1
 48
1.0
  6
BYLAYER
100
AcDbLine
 10
251.1260000000000048
 20
34.4247999999999976
 30
0.0
 11
249.4000000000000057
 21
34.4247999999999976
 31
0.0
  0
LINE
  5
AD
100
AcDbEntity
  8
0
 62
0
370
-1
 48
1.0
  6
BYLAYER
100
AcDbLine
 10
249.4000000000000057
 20
34.4247999999999976
 30
0.0
 11
249.4000000000000057
 21
35.3451999999999984
 31
0.0
  0
LINE
  5
AE
100
AcDbEntity
  8
0
 62
0
370
-1
 48
1.0
  6
BYLAYER
100
AcDbLine
 10
249.4000000000000057
 20
35.3451999999999984
 30
0.0
 11
246.25
 21
35.3451999999999984
 31
0.0
  0
LINE
  5
AF
100
AcDbEntity
  8
0
 62
0
370
-1
 48
1.0
  6
BYLAYER
100
AcDbLine
 10
246.25
 20
35.3451999999999984
 30
0.0
 11
246.25
 21
34.4247999999999976
 31
0.0
  0
LINE
  5
B0
100
AcDbEntity
  8
0
 62
0
370
-1
 48
1.0
  6
BYLAYER
100
AcDbLine
 10
246.25
 20
34.4247999999999976
 30
0.0
 11
244.5260000000000105
 21
34.4247999999999976
 31
0.0
  0
LINE
  5
B1
100
AcDbEntity
  8
0
 62
0
370
-1
 48
1.0
  6
BYLAYER
100
AcDbLine
 10
244.5260000000000105
 20
34.4247999999999976
 30
0.0
 11
244.5260000000000105
 21
31.194700000000001
 31
0.0
  0
LINE
  5
B2
100
AcDbEntity
  8
0
 62
0
370
-1
 48
1.0
  6
BYLAYER
100
AcDbLine
 10
244.5260000000000105
 20
31.194700000000001
 30
0.0
 11
243.7009999999999934
 21
31.194700000000001
 31
0.0
  0
LINE
  5
B3
100
AcDbEntity
  8
0
 62
0
370
-1
 48
1.0
  6
BYLAYER
100
AcDbLine
 10
243.7009999999999934
 20
31.194700000000001
 30
0.0
 11
243.7009999999999934
 21
28.5446999999999989
 31
0.0
  0
LINE
  5
B4
100
AcDbEntity
  8
0
 62
0
370
-1
 48
1.0
  6
BYLAYER
100
AcDbLine
 10
243.7009999999999934
 20
28.5446999999999989
 30
0.0
 11
244.5260000000000105
 21
28.5446999999999989
 31
0.0
  0
LINE
  5
B5
100
AcDbEntity
  8
0
 62
0
370
-1
 48
1.0
  6
BYLAYER
100
AcDbLine
 10
244.5260000000000105
 20
28.5446999999999989
 30
0.0
 11
244.5260000000000105
 21
22.2759999999999998
 31
0.0
  0
LINE
  5
B6
100
AcDbEntity
  8
0
 62
0
370
-1
 48
1.0
  6
BYLAYER
100
AcDbLine
 10
244.5260000000000105
 20
22.2759999999999998
 30
0.0
 11
246.25
 21
22.2759999999999998
 31
0.0
  0
LINE
  5
B7
100
AcDbEntity
  8
0
 62
0
370
-1
 48
1.0
  6
BYLAYER
100
AcDbLine
 10
246.25
 20
22.2759999999999998
 30
0.0
 11
246.25
 21
21.2947999999999986
 31
0.0
  0
LINE
  5
B8
100
AcDbEntity
  8
0
 62
0
370
-1
 48
1.0
  6
BYLAYER
100
AcDbLine
 10
246.25
 20
21.2947999999999986
 30
0.0
 11
249.4000000000000057
 21
21.2947999999999986
 31
0.0
  0
LINE
  5
B9
100
AcDbEntity
  8
0
 62
0
370
-1
 48
1.0
  6
BYLAYER
100
AcDbLine
 10
249.4000000000000057
 20
21.2947999999999986
 30
0.0
 11
249.4000000000000057
 21
22.2759999999999998
 31
0.0
  0
LINE
  5
BA
100
AcDbEntity
  8
0
 62
0
370
-1
 48
1.0
  6
BYLAYER
100
AcDbLine
 10
249.4000000000000057
 20
22.2759999999999998
 30
0.0
 11
251.1260000000000048
 21
22.2759999999999998
 31
0.0
  0
LINE
  5
BB
100
AcDbEntity
  8
0
 62
0
370
-1
 48
1.0
  6
BYLAYER
100
AcDbLine
 10
251.1260000000000048
 20
22.2759999999999998
 30
0.0
 11
251.1260000000000048
 21
26.7463000000000015
 31
0.0
  0
LINE
  5
BC
100
AcDbEntity
  8
0
 62
0
370
-1
 48
1.0
  6
BYLAYER
100
AcDbLine
 10
251.1260000000000048
 20
26.7463000000000015
 30
0.0
 11
252.8009999999999877
 21
26.7463000000000015
 31
0.0
  0
LINE
  5
BD
100
AcDbEntity
  8
0
 62
0
370
-1
 48
1.0
  6
BYLAYER
100
AcDbLine
 10
252.8009999999999877
 20
26.7463000000000015
 30
0.0
 11
252.8009999999999877
 21
22.0444999999999993
 31
0.0
  0
LINE
  5
BE
100
AcDbEntity
  8
0
 62
0
370
-1
 48
1.0
  6
BYLAYER
100
AcDbLine
 10
252.8009999999999877
 20
22.0444999999999993
 30
0.0
 11
266.6499999999999773
 21
22.0444999999999993
 31
0.0
  0
LINE
  5
BF
100
AcDbEntity
  8
0
 62
0
370
-1
 48
1.0
  6
BYLAYER
100
AcDbLine
 10
266.6499999999999773
 20
22.0444999999999993
 30
0.0
 11
266.6499999999999773
 21
26.7463000000000015
 31
0.0
  0
LINE
  5
C0
100
AcDbEntity
  8
0
 62
0
370
-1
 48
1.0
  6
BYLAYER
100
AcDbLine
 10
266.6499999999999773
 20
26.7463000000000015
 30
0.0
 11
268.3260000000000218
 21
26.7463000000000015
 31
0.0
  0
LINE
  5
C1
100
AcDbEntity
  8
0
 62
0
370
-1
 48
1.0
  6
BYLAYER
100
AcDbLine
 10
268.3260000000000218
 20
26.7463000000000015
 30
0.0
 11
268.3260000000000218
 21
22.2759999999999998
 31
0.0
  0
LINE
  5
C2
100
AcDbEntity
  8
0
 62
0
370
-1
 48
1.0
  6
BYLAYER
100
AcDbLine
 10
268.3260000000000218
 20
22.2759999999999998
 30
0.0
 11
270.0500000000000114
 21
22.2759999999999998
 31
0.0
  0
LINE
  5
C3
100
AcDbEntity
  8
0
 62
0
370
-1
 48
1.0
  6
BYLAYER
100
AcDbLine
 10
270.0500000000000114
 20
22.2759999999999998
 30
0.0
 11
270.0500000000000114
 21
21.2947999999999986
 31
0.0
  0
LINE
  5
C4
100
AcDbEntity
  8
0
 62
0
370
-1
 48
1.0
  6
BYLAYER
100
AcDbLine
 10
270.0500000000000114
 20
21.2947999999999986
 30
0.0
 11
273.1999999999999886
 21
21.2947999999999986
 31
0.0
  0
LINE
  5
C5
100
AcDbEntity
  8
0
 62
0
370
-1
 48
1.0
  6
BYLAYER
100
AcDbLine
 10
273.1999999999999886
 20
21.2947999999999986
 30
0.0
 11
273.1999999999999886
 21
22.2759999999999998
 31
0.0
  0
LINE
  5
C6
100
AcDbEntity
  8
0
 62
0
370
-1
 48
1.0
  6
BYLAYER
100
AcDbLine
 10
273.1999999999999886
 20
22.2759999999999998
 30
0.0
 11
274.9250000000000114
 21
22.2759999999999998
 31
0.0
  0
LINE
  5
C7
100
AcDbEntity
  8
0
 62
0
370
-1
 48
1.0
  6
BYLAYER
100
AcDbLine
 10
274.9250000000000114
 20
22.2759999999999998
 30
0.0
 11
274.9250000000000114
 21
28.5446999999999989
 31
0.0
  0
LINE
  5
C8
100
AcDbEntity
  8
0
 62
0
370
-1
 48
1.0
  6
BYLAYER
100
AcDbLine
 10
274.9250000000000114
 20
28.5446999999999989
 30
0.0
 11
275.7509999999999764
 21
28.5446999999999989
 31
0.0
  0
LINE
  5
C9
100
AcDbEntity
  8
0
 62
0
370
-1
 48
1.0
  6
BYLAYER
100
AcDbLine
 10
275.7509999999999764
 20
28.5446999999999989
 30
0.0
 11
275.7509999999999764
 21
31.194700000000001
 31
0.0
  0
LINE
  5
CA
100
AcDbEntity
  8
0
 62
0
370
-1
 48
1.0
  6
BYLAYER
100
AcDbLine
 10
275.7509999999999764
 20
31.194700000000001
 30
0.0
 11
274.9250000000000114
 21
31.194700000000001
 31
0.0
  0
LINE
  5
CB
100
AcDbEntity
  8
0
 62
0
370
-1
 48
1.0
  6
BYLAYER
100
AcDbLine
 10
274.9250000000000114
 20
31.194700000000001
 30
0.0
 11
274.9250000000000114
 21
34.4247999999999976
 31
0.0
  0
LINE
  5
CC
100
AcDbEntity
  8
0
 62
0
370
-1
 48
1.0
  6
BYLAYER
100
AcDbLine
 10
274.9250000000000114
 20
34.4247999999999976
 30
0.0
 11
273.1999999999999886
 21
34.4247999999999976
 31
0.0
  0
LINE
  5
CD
100
AcDbEntity
  8
0
 62
0
370
-1
 48
1.0
  6
BYLAYER
100
AcDbLine
 10
273.1999999999999886
 20
34.4247999999999976
 30
0.0
 11
273.1999999999999886
 21
35.3451999999999984
 31
0.0
  0
LINE
  5
CE
100
AcDbEntity
  8
0
 62
0
370
-1
 48
1.0
  6
BYLAYER
100
AcDbLine
 10
273.1999999999999886
 20
35.3451999999999984
 30
0.0
 11
270.0500000000000114
 21
35.3451999999999984
 31
0.0
  0
LINE
  5
CF
100
AcDbEntity
  8
0
 62
0
370
-1
 48
1.0
  6
BYLAYER
100
AcDbLine
 10
270.0500000000000114
 20
35.3451999999999984
 30
0.0
 11
270.0500000000000114
 21
34.4247999999999976
 31
0.0
  0
LINE
  5
D0
100
AcDbEntity
  8
0
 62
0
370
-1
 48
1.0
  6
BYLAYER
100
AcDbLine
 10
270.0500000000000114
 20
34.4247999999999976
 30
0.0
 11
268.3260000000000218
 21
34.4247999999999976
 31
0.0
  0
LINE
  5
D1
100
AcDbEntity
  8
0
 62
0
370
-1
 48
1.0
  6
BYLAYER
100
AcDbLine
 10
268.3260000000000218
 20
34.4247999999999976
 30
0.0
 11
268.3260000000000218
 21
31.194700000000001
 31
0.0
  0
LINE
  5
D2
100
AcDbEntity
  8
0
 62
0
370
-1
 48
1.0
  6
BYLAYER
100
AcDbLine
 10
268.3260000000000218
 20
31.194700000000001
 30
0.0
 11
266.6499999999999773
 21
31.194700000000001
 31
0.0
  0
LINE
  5
D3
100
AcDbEntity
  8
0
 62
0
370
-1
 48
1.0
  6
BYLAYER
100
AcDbLine
 10
266.6499999999999773
 20
31.194700000000001
 30
0.0
 11
266.6499999999999773
 21
35.8950999999999993
 31
0.0
  0
LINE
  5
D4
100
AcDbEntity
  8
0
 62
0
370
-1
 48
1.0
  6
BYLAYER
100
AcDbLine
 10
266.6499999999999773
 20
35.8950999999999993
 30
0.0
 11
252.8009999999999877
 21
35.8950999999999993
 31
0.0
  0
LINE
  5
D5
100
AcDbEntity
  8
0
 62
0
370
-1
 48
1.0
  6
BYLAYER
100
AcDbLine
 10
14.6760999999999999
 20
35.8950999999999993
 30
0.0
 11
14.6760999999999999
 21
31.194700000000001
 31
0.0
  0
LINE
  5
D6
100
AcDbEntity
  8
0
 62
0
370
-1
 48
1.0
  6
BYLAYER
100
AcDbLine
 10
14.6760999999999999
 20
31.194700000000001
 30
0.0
 11
13.0004000000000008
 21
31.194700000000001
 31
0.0
  0
LINE
  5
D7
100
AcDbEntity
  8
0
 62
0
370
-1
 48
1.0
  6
BYLAYER
100
AcDbLine
 10
13.0004000000000008
 20
31.194700000000001
 30
0.0
 11
13.0004000000000008
 21
34.4247999999999976
 31
0.0
  0
LINE
  5
D8
100
AcDbEntity
  8
0
 62
0
370
-1
 48
1.0
  6
BYLAYER
100
AcDbLine
 10
13.0004000000000008
 20
34.4247999999999976
 30
0.0
 11
11.2751000000000001
 21
34.4247999999999976
 31
0.0
  0
LINE
  5
D9
100
AcDbEntity
  8
0
 62
0
370
-1
 48
1.0
  6
BYLAYER
100
AcDbLine
 10
11.2751000000000001
 20
34.4247999999999976
 30
0.0
 11
11.2751000000000001
 21
35.3451999999999984
 31
0.0
  0
LINE
  5
DA
100
AcDbEntity
  8
0
 62
0
370
-1
 48
1.0
  6
BYLAYER
100
AcDbLine
 10
11.2751000000000001
 20
35.3451999999999984
 30
0.0
 11
8.1249300000000009
 21
35.3451999999999984
 31
0.0
  0
LINE
  5
DB
100
AcDbEntity
  8
0
 62
0
370
-1
 48
1.0
  6
BYLAYER
100
AcDbLine
 10
8.1249300000000009
 20
35.3451999999999984
 30
0.0
 11
8.1249300000000009
 21
34.4247999999999976
 31
0.0
  0
LINE
  5
DC
100
AcDbEntity
  8
0
 62
0
370
-1
 48
1.0
  6
BYLAYER
100
AcDbLine
 10
8.1249300000000009
 20
34.4247999999999976
 30
0.0
 11
6.4009799999999997
 21
34.4247999999999976
 31
0.0
  0
LINE
  5
DD
100
AcDbEntity
  8
0
 62
0
370
-1
 48
1.0
  6
BYLAYER
100
AcDbLine
 10
6.4009799999999997
 20
34.4247999999999976
 30
0.0
 11
6.4009799999999997
 21
31.194700000000001
 31
0.0
  0
LINE
  5
DE
100
AcDbEntity
  8
0
 62
0
370
-1
 48
1.0
  6
BYLAYER
100
AcDbLine
 10
6.4009799999999997
 20
31.194700000000001
 30
0.0
 11
5.5755499999999998
 21
31.194700000000001
 31
0.0
  0
LINE
  5
DF
100
AcDbEntity
  8
0
 62
0
370
-1
 48
1.0
  6
BYLAYER
100
AcDbLine
 10
5.5755499999999998
 20
31.194700000000001
 30
0.0
 11
5.5755499999999998
 21
28.5446999999999989
 31
0.0
  0
LINE
  5
E0
100
AcDbEntity
  8
0
 62
0
370
-1
 48
1.0
  6
BYLAYER
100
AcDbLine
 10
5.5755499999999998
 20
28.5446999999999989
 30
0.0
 11
6.4009799999999997
 21
28.5446999999999989
 31
0.0
  0
LINE
  5
E1
100
AcDbEntity
  8
0
 62
0
370
-1
 48
1.0
  6
BYLAYER
100
AcDbLine
 10
6.4009799999999997
 20
28.5446999999999989
 30
0.0
 11
6.4009799999999997
 21
22.2759999999999998
 31
0.0
  0
LINE
  5
E2
100
AcDbEntity
  8
0
 62
0
370
-1
 48
1.0
  6
BYLAYER
100
AcDbLine
 10
6.4009799999999997
 20
22.2759999999999998
 30
0.0
 11
8.1249300000000009
 21
22.2759999999999998
 31
0.0
  0
LINE
  5
E3
100
AcDbEntity
  8
0
 62
0
370
-1
 48
1.0
  6
BYLAYER
100
AcDbLine
 10
8.1249300000000009
 20
22.2759999999999998
 30
0.0
 11
8.1249300000000009
 21
21.2947999999999986
 31
0.0
  0
LINE
  5
E4
100
AcDbEntity
  8
0
 62
0
370
-1
 48
1.0
  6
BYLAYER
100
AcDbLine
 10
8.1249300000000009
 20
21.2947999999999986
 30
0.0
 11
11.2751000000000001
 21
21.2947999999999986
 31
0.0
  0
LINE
  5
E5
100
AcDbEntity
  8
0
 62
0
370
-1
 48
1.0
  6
BYLAYER
100
AcDbLine
 10
11.2751000000000001
 20
21.2947999999999986
 30
0.0
 11
11.2751000000000001
 21
22.2759999999999998
 31
0.0
  0
LINE
  5
E6
100
AcDbEntity
  8
0
 62
0
370
-1
 48
1.0
  6
BYLAYER
100
AcDbLine
 10
11.2751000000000001
 20
22.2759999999999998
 30
0.0
 11
13.0004000000000008
 21
22.2759999999999998
 31
0.0
  0
LINE
  5
E7
100
AcDbEntity
  8
0
 62
0
370
-1
 48
1.0
  6
BYLAYER
100
AcDbLine
 10
13.0004000000000008
 20
22.2759999999999998
 30
0.0
 11
13.0004000000000008
 21
26.7463000000000015
 31
0.0
  0
LINE
  5
E8
100
AcDbEntity
  8
0
 62
0
370
-1
 48
1.0
  6
BYLAYER
100
AcDbLine
 10
13.0004000000000008
 20
26.7463000000000015
 30
0.0
 11
14.6760999999999999
 21
26.7463000000000015
 31
0.0
  0
LINE
  5
E9
100
AcDbEntity
  8
0
 62
0
370
-1
 48
1.0
  6
BYLAYER
100
AcDbLine
 10
14.6760999999999999
 20
26.7463000000000015
 30
0.0
 11
14.6760999999999999
 21
22.0444999999999993
 31
0.0
  0
LINE
  5
EA
100
AcDbEntity
  8
0
 62
0
370
-1
 48
1.0
  6
BYLAYER
100
AcDbLine
 10
14.6760999999999999
 20
22.0444999999999993
 30
0.0
 11
28.5254000000000012
 21
22.0444999999999993
 31
0.0
  0
LINE
  5
EB
100
AcDbEntity
  8
0
 62
0
370
-1
 48
1.0
  6
BYLAYER
100
AcDbLine
 10
28.5254000000000012
 20
22.0444999999999993
 30
0.0
 11
28.5254000000000012
 21
26.7463000000000015
 31
0.0
  0
LINE
  5
EC
100
AcDbEntity
  8
0
 62
0
370
-1
 48
1.0
  6
BYLAYER
100
AcDbLine
 10
28.5254000000000012
 20
26.7463000000000015
 30
0.0
 11
30.2011000000000003
 21
26.7463000000000015
 31
0.0
  0
LINE
  5
ED
100
AcDbEntity
  8
0
 62
0
370
-1
 48
1.0
  6
BYLAYER
100
AcDbLine
 10
30.2011000000000003
 20
26.7463000000000015
 30
0.0
 11
30.2011000000000003
 21
22.2759999999999998
 31
0.0
  0
LINE
  5
EE
100
AcDbEntity
  8
0
 62
0
370
-1
 48
1.0
  6
BYLAYER
100
AcDbLine
 10
30.2011000000000003
 20
22.2759999999999998
 30
0.0
 11
31.9250000000000007
 21
22.2759999999999998
 31
0.0
  0
LINE
  5
EF
100
AcDbEntity
  8
0
 62
0
370
-1
 48
1.0
  6
BYLAYER
100
AcDbLine
 10
31.9250000000000007
 20
22.2759999999999998
 30
0.0
 11
31.9250000000000007
 21
21.2947999999999986
 31
0.0
  0
LINE
  5
F0
100
AcDbEntity
  8
0
 62
0
370
-1
 48
1.0
  6
BYLAYER
100
AcDbLine
 10
31.9250000000000007
 20
21.2947999999999986
 30
0.0
 11
35.0752000000000024
 21
21.2947999999999986
 31
0.0
  0
LINE
  5
F1
100
AcDbEntity
  8
0
 62
0
370
-1
 48
1.0
  6
BYLAYER
100
AcDbLine
 10
35.0752000000000024
 20
21.2947999999999986
 30
0.0
 11
35.0752000000000024
 21
22.2759999999999998
 31
0.0
  0
LINE
  5
F2
100
AcDbEntity
  8
0
 62
0
370
-1
 48
1.0
  6
BYLAYER
100
AcDbLine
 10
35.0752000000000024
 20
22.2759999999999998
 30
0.0
 11
36.8004000000000033
 21
22.2759999999999998
 31
0.0
  0
LINE
  5
F3
100
AcDbEntity
  8
0
 62
0
370
-1
 48
1.0
  6
BYLAYER
100
AcDbLine
 10
36.8004000000000033
 20
22.2759999999999998
 30
0.0
 11
36.8004000000000033
 21
28.5446999999999989
 31
0.0
  0
LINE
  5
F4
100
AcDbEntity
  8
0
 62
0
370
-1
 48
1.0
  6
BYLAYER
100
AcDbLine
 10
36.8004000000000033
 20
28.5446999999999989
 30
0.0
 11
37.6259000000000015
 21
28.5446999999999989
 31
0.0
  0
LINE
  5
F5
100
AcDbEntity
  8
0
 62
0
370
-1
 48
1.0
  6
BYLAYER
100
AcDbLine
 10
37.6259000000000015
 20
28.5446999999999989
 30
0.0
 11
37.6259000000000015
 21
31.194700000000001
 31
0.0
  0
LINE
  5
F6
100
AcDbEntity
  8
0
 62
0
370
-1
 48
1.0
  6
BYLAYER
100
AcDbLine
 10
37.6259000000000015
 20
31.194700000000001
 30
0.0
 11
36.8004000000000033
 21
31.194700000000001
 31
0.0
  0
LINE
  5
F7
100
AcDbEntity
  8
0
 62
0
370
-1
 48
1.0
  6
BYLAYER
100
AcDbLine
 10
36.8004000000000033
 20
31.194700000000001
 30
0.0
 11
36.8004000000000033
 21
34.4247999999999976
 31
0.0
  0
LINE
  5
F8
100
AcDbEntity
  8
0
 62
0
370
-1
 48
1.0
  6
BYLAYER
100
AcDbLine
 10
36.8004000000000033
 20
34.4247999999999976
 30
0.0
 11
35.0752000000000024
 21
34.4247999999999976
 31
0.0
  0
LINE
  5
F9
100
AcDbEntity
  8
0
 62
0
370
-1
 48
1.0
  6
BYLAYER
100
AcDbLine
 10
35.0752000000000024
 20
34.4247999999999976
 30
0.0
 11
35.0752000000000024
 21
35.3451999999999984
 31
0.0
  0
LINE
  5
FA
100
AcDbEntity
  8
0
 62
0
370
-1
 48
1.0
  6
BYLAYER
100
AcDbLine
 10
35.0752000000000024
 20
35.3451999999999984
 30
0.0
 11
31.9250000000000007
 21
35.3451999999999984
 31
0.0
  0
LINE
  5
FB
100
AcDbEntity
  8
0
 62
0
370
-1
 48
1.0
  6
BYLAYER
100
AcDbLine
 10
31.9250000000000007
 20
35.3451999999999984
 30
0.0
 11
31.9250000000000007
 21
34.4247999999999976
 31
0.0
  0
LINE
  5
FC
100
AcDbEntity
  8
0
 62
0
370
-1
 48
1.0
  6
BYLAYER
100
AcDbLine
 10
31.9250000000000007
 20
34.4247999999999976
 30
0.0
 11
30.2011000000000003
 21
34.4247999999999976
 31
0.0
  0
LINE
  5
FD
100
AcDbEntity
  8
0
 62
0
370
-1
 48
1.0
  6
BYLAYER
100
AcDbLine
 10
30.2011000000000003
 20
34.4247999999999976
 30
0.0
 11
30.2011000000000003
 21
31.194700000000001
 31
0.0
  0
LINE
  5
FE
100
AcDbEntity
  8
0
 62
0
370
-1
 48
1.0
  6
BYLAYER
100
AcDbLine
 10
30.2011000000000003
 20
31.194700000000001
 30
0.0
 11
28.5254000000000012
 21
31.194700000000001
 31
0.0
  0
LINE
  5
FF
100
AcDbEntity
  8
0
 62
0
370
-1
 48
1.0
  6
BYLAYER
100
AcDbLine
 10
28.5254000000000012
 20
31.194700000000001
 30
0.0
 11
28.5254000000000012
 21
35.8950999999999993
 31
0.0
  0
LINE
  5
100
100
AcDbEntity
  8
0
 62
0
370
-1
 48
1.0
  6
BYLAYER
100
AcDbLine
 10
28.5254000000000012
 20
35.8950999999999993
 30
0.0
 11
14.6760999999999999
 21
35.8950999999999993
 31
0.0
  0
LINE
  5
101
100
AcDbEntity
  8
0
 62
0
370
-1
 48
1.0
  6
BYLAYER
100
AcDbLine
 10
217.0809999999999889
 20
35.8950999999999993
 30
0.0
 11
230.9319999999999879
 21
35.8950999999999993
 31
0.0
  0
LINE
  5
102
100
AcDbEntity
  8
0
 62
0
370
-1
 48
1.0
  6
BYLAYER
100
AcDbLine
 10
230.9319999999999879
 20
35.8950999999999993
 30
0.0
 11
230.9319999999999879
 21
22.0444999999999993
 31
0.0
  0
LINE
  5
103
100
AcDbEntity
  8
0
 62
0
370
-1
 48
1.0
  6
BYLAYER
100
AcDbLine
 10
230.9319999999999879
 20
22.0444999999999993
 30
0.0
 11
217.0809999999999889
 21
22.0444999999999993
 31
0.0
  0
LINE
  5
104
100
AcDbEntity
  8
0
 62
0
370
-1
 48
1.0
  6
BYLAYER
100
AcDbLine
 10
217.0809999999999889
 20
22.0444999999999993
 30
0.0
 11
217.0809999999999889
 21
35.8950999999999993
 31
0.0
  0
LINE
  5
105
100
AcDbEntity
  8
0
 62
0
370
-1
 48
1.0
  6
BYLAYER
100
AcDbLine
 10
198.0310000000000059
 20
35.8950999999999993
 30
0.0
 11
211.882000000000005
 21
35.8950999999999993
 31
0.0
  0
LINE
  5
106
100
AcDbEntity
  8
0
 62
0
370
-1
 48
1.0
  6
BYLAYER
100
AcDbLine
 10
211.882000000000005
 20
35.8950999999999993
 30
0.0
 11
211.882000000000005
 21
22.0444999999999993
 31
0.0
  0
LINE
  5
107
100
AcDbEntity
  8
0
 62
0
370
-1
 48
1.0
  6
BYLAYER
100
AcDbLine
 10
211.882000000000005
 20
22.0444999999999993
 30
0.0
 11
198.0310000000000059
 21
22.0444999999999993
 31
0.0
  0
LINE
  5
108
100
AcDbEntity
  8
0
 62
0
370
-1
 48
1.0
  6
BYLAYER
100
AcDbLine
 10
198.0310000000000059
 20
22.0444999999999993
 30
0.0
 11
198.0310000000000059
 21
35.8950999999999993
 31
0.0
  0
LINE
  5
109
100
AcDbEntity
  8
0
 62
0
370
-1
 48
1.0
  6
BYLAYER
100
AcDbLine
 10
178.9809999999999945
 20
35.8950999999999993
 30
0.0
 11
192.8319999999999936
 21
35.8950999999999993
 31
0.0
  0
LINE
  5
10A
100
AcDbEntity
  8
0
 62
0
370
-1
 48
1.0
  6
BYLAYER
100
AcDbLine
 10
192.8319999999999936
 20
35.8950999999999993
 30
0.0
 11
192.8319999999999936
 21
22.0444999999999993
 31
0.0
  0
LINE
  5
10B
100
AcDbEntity
  8
0
 62
0
370
-1
 48
1.0
  6
BYLAYER
100
AcDbLine
 10
192.8319999999999936
 20
22.0444999999999993
 30
0.0
 11
178.9809999999999945
 21
22.0444999999999993
 31
0.0
  0
LINE
  5
10C
100
AcDbEntity
  8
0
 62
0
370
-1
 48
1.0
  6
BYLAYER
100
AcDbLine
 10
178.9809999999999945
 20
22.0444999999999993
 30
0.0
 11
178.9809999999999945
 21
35.8950999999999993
 31
0.0
  0
LINE
  5
10D
100
AcDbEntity
  8
0
 62
0
370
-1
 48
1.0
  6
BYLAYER
100
AcDbLine
 10
159.9310000000000116
 20
35.8950999999999993
 30
0.0
 11
173.7820000000000107
 21
35.8950999999999993
 31
0.0
  0
LINE
  5
10E
100
AcDbEntity
  8
0
 62
0
370
-1
 48
1.0
  6
BYLAYER
100
AcDbLine
 10
173.7820000000000107
 20
35.8950999999999993
 30
0.0
 11
173.7820000000000107
 21
22.0444999999999993
 31
0.0
  0
LINE
  5
10F
100
AcDbEntity
  8
0
 62
0
370
-1
 48
1.0
  6
BYLAYER
100
AcDbLine
 10
173.7820000000000107
 20
22.0444999999999993
 30
0.0
 11
159.9310000000000116
 21
22.0444999999999993
 31
0.0
  0
LINE
  5
110
100
AcDbEntity
  8
0
 62
0
370
-1
 48
1.0
  6
BYLAYER
100
AcDbLine
 10
159.9310000000000116
 20
22.0444999999999993
 30
0.0
 11
159.9310000000000116
 21
35.8950999999999993
 31
0.0
  0
LINE
  5
111
100
AcDbEntity
  8
0
 62
0
370
-1
 48
1.0
  6
BYLAYER
100
AcDbLine
 10
140.8810000000000002
 20
35.8950999999999993
 30
0.0
 11
154.7319999999999993
 21
35.8950999999999993
 31
0.0
  0
LINE
  5
112
100
AcDbEntity
  8
0
 62
0
370
-1
 48
1.0
  6
BYLAYER
100
AcDbLine
 10
154.7319999999999993
 20
35.8950999999999993
 30
0.0
 11
154.7319999999999993
 21
22.0444999999999993
 31
0.0
  0
LINE
  5
113
100
AcDbEntity
  8
0
 62
0
370
-1
 48
1.0
  6
BYLAYER
100
AcDbLine
 10
154.7319999999999993
 20
22.0444999999999993
 30
0.0
 11
140.8810000000000002
 21
22.0444999999999993
 31
0.0
  0
LINE
  5
114
100
AcDbEntity
  8
0
 62
0
370
-1
 48
1.0
  6
BYLAYER
100
AcDbLine
 10
140.8810000000000002
 20
22.0444999999999993
 30
0.0
 11
140.8810000000000002
 21
35.8950999999999993
 31
0.0
  0
LINE
  5
115
100
AcDbEntity
  8
0
 62
0
370
-1
 48
1.0
  6
BYLAYER
100
AcDbLine
 10
121.8310000000000031
 20
35.8950999999999993
 30
0.0
 11
135.6819999999999879
 21
35.8950999999999993
 31
0.0
  0
LINE
  5
116
100
AcDbEntity
  8
0
 62
0
370
-1
 48
1.0
  6
BYLAYER
100
AcDbLine
 10
135.6819999999999879
 20
35.8950999999999993
 30
0.0
 11
135.6819999999999879
 21
22.0444999999999993
 31
0.0
  0
LINE
  5
117
100
AcDbEntity
  8
0
 62
0
370
-1
 48
1.0
  6
BYLAYER
100
AcDbLine
 10
135.6819999999999879
 20
22.0444999999999993
 30
0.0
 11
121.8310000000000031
 21
22.0444999999999993
 31
0.0
  0
LINE
  5
118
100
AcDbEntity
  8
0
 62
0
370
-1
 48
1.0
  6
BYLAYER
100
AcDbLine
 10
121.8310000000000031
 20
22.0444999999999993
 30
0.0
 11
121.8310000000000031
 21
35.8950999999999993
 31
0.0
  0
LINE
  5
119
100
AcDbEntity
  8
0
 62
0
370
-1
 48
1.0
  6
BYLAYER
100
AcDbLine
 10
102.7810000000000059
 20
35.8950999999999993
 30
0.0
 11
116.632000000000005
 21
35.8950999999999993
 31
0.0
  0
LINE
  5
11A
100
AcDbEntity
  8
0
 62
0
370
-1
 48
1.0
  6
BYLAYER
100
AcDbLine
 10
116.632000000000005
 20
35.8950999999999993
 30
0.0
 11
116.632000000000005
 21
22.0444999999999993
 31
0.0
  0
LINE
  5
11B
100
AcDbEntity
  8
0
 62
0
370
-1
 48
1.0
  6
BYLAYER
100
AcDbLine
 10
116.632000000000005
 20
22.0444999999999993
 30
0.0
 11
102.7810000000000059
 21
22.0444999999999993
 31
0.0
  0
LINE
  5
11C
100
AcDbEntity
  8
0
 62
0
370
-1
 48
1.0
  6
BYLAYER
100
AcDbLine
 10
102.7810000000000059
 20
22.0444999999999993
 30
0.0
 11
102.7810000000000059
 21
35.8950999999999993
 31
0.0
  0
LINE
  5
11D
100
AcDbEntity
  8
0
 62
0
370
-1
 48
1.0
  6
BYLAYER
100
AcDbLine
 10
83.7310999999999979
 20
35.8950999999999993
 30
0.0
 11
97.5815000000000055
 21
35.8950999999999993
 31
0.0
  0
LINE
  5
11E
100
AcDbEntity
  8
0
 62
0
370
-1
 48
1.0
  6
BYLAYER
100
AcDbLine
 10
97.5815000000000055
 20
35.8950999999999993
 30
0.0
 11
97.5815000000000055
 21
22.0444999999999993
 31
0.0
  0
LINE
  5
11F
100
AcDbEntity
  8
0
 62
0
370
-1
 48
1.0
  6
BYLAYER
100
AcDbLine
 10
97.5815000000000055
 20
22.0444999999999993
 30
0.0
 11
83.7310999999999979
 21
22.0444999999999993
 31
0.0
  0
LINE
  5
120
100
AcDbEntity
  8
0
 62
0
370
-1
 48
1.0
  6
BYLAYER
100
AcDbLine
 10
83.7310999999999979
 20
22.0444999999999993
 30
0.0
 11
83.7310999999999979
 21
35.8950999999999993
 31
0.0
  0
LINE
  5
121
100
AcDbEntity
  8
0
 62
0
370
-1
 48
1.0
  6
BYLAYER
100
AcDbLine
 10
64.6811000000000007
 20
35.8950999999999993
 30
0.0
 11
78.5314999999999941
 21
35.8950999999999993
 31
0.0
  0
LINE
  5
122
100
AcDbEntity
  8
0
 62
0
370
-1
 48
1.0
  6
BYLAYER
100
AcDbLine
 10
78.5314999999999941
 20
35.8950999999999993
 30
0.0
 11
78.5314999999999941
 21
22.0444999999999993
 31
0.0
  0
LINE
  5
123
100
AcDbEntity
  8
0
 62
0
370
-1
 48
1.0
  6
BYLAYER
100
AcDbLine
 10
78.5314999999999941
 20
22.0444999999999993
 30
0.0
 11
64.6811000000000007
 21
22.0444999999999993
 31
0.0
  0
LINE
  5
124
100
AcDbEntity
  8
0
 62
0
370
-1
 48
1.0
  6
BYLAYER
100
AcDbLine
 10
64.6811000000000007
 20
22.0444999999999993
 30
0.0
 11
64.6811000000000007
 21
35.8950999999999993
 31
0.0
  0
LINE
  5
125
100
AcDbEntity
  8
0
 62
0
370
-1
 48
1.0
  6
BYLAYER
100
AcDbLine
 10
45.6311000000000035
 20
35.8950999999999993
 30
0.0
 11
59.4814999999999969
 21
35.8950999999999993
 31
0.0
  0
LINE
  5
126
100
AcDbEntity
  8
0
 62
0
370
-1
 48
1.0
  6
BYLAYER
100
AcDbLine
 10
59.4814999999999969
 20
35.8950999999999993
 30
0.0
 11
59.4814999999999969
 21
22.0444999999999993
 31
0.0
  0
LINE
  5
127
100
AcDbEntity
  8
0
 62
0
370
-1
 48
1.0
  6
BYLAYER
100
AcDbLine
 10
59.4814999999999969
 20
22.0444999999999993
 30
0.0
 11
45.6311000000000035
 21
22.0444999999999993
 31
0.0
  0
LINE
  5
128
100
AcDbEntity
  8
0
 62
0
370
-1
 48
1.0
  6
BYLAYER
100
AcDbLine
 10
45.6311000000000035
 20
22.0444999999999993
 30
0.0
 11
45.6311000000000035
 21
35.8950999999999993
 31
0.0
  0
LINE
  5
129
100
AcDbEntity
  8
0
 62
0
370
-1
 48
1.0
  6
BYLAYER
100
AcDbLine
 10
257.5620000000000118
 20
54.9450999999999965
 30
0.0
 11
257.5620000000000118
 21
50.2447000000000017
 31
0.0
  0
LINE
  5
12A
100
AcDbEntity
  8
0
 62
0
370
-1
 48
1.0
  6
BYLAYER
100
AcDbLine
 10
257.5620000000000118
 20
50.2447000000000017
 30
0.0
 11
255.8880000000000052
 21
50.2447000000000017
 31
0.0
  0
LINE
  5
12B
100
AcDbEntity
  8
0
 62
0
370
-1
 48
1.0
  6
BYLAYER
100
AcDbLine
 10
255.8880000000000052
 20
50.2447000000000017
 30
0.0
 11
255.8880000000000052
 21
53.4748000000000019
 31
0.0
  0
LINE
  5
12C
100
AcDbEntity
  8
0
 62
0
370
-1
 48
1.0
  6
BYLAYER
100
AcDbLine
 10
255.8880000000000052
 20
53.4748000000000019
 30
0.0
 11
254.1610000000000014
 21
53.4748000000000019
 31
0.0
  0
LINE
  5
12D
100
AcDbEntity
  8
0
 62
0
370
-1
 48
1.0
  6
BYLAYER
100
AcDbLine
 10
254.1610000000000014
 20
53.4748000000000019
 30
0.0
 11
254.1610000000000014
 21
54.3952000000000027
 31
0.0
  0
LINE
  5
12E
100
AcDbEntity
  8
0
 62
0
370
-1
 48
1.0
  6
BYLAYER
100
AcDbLine
 10
254.1610000000000014
 20
54.3952000000000027
 30
0.0
 11
251.0120000000000005
 21
54.3952000000000027
 31
0.0
  0
LINE
  5
12F
100
AcDbEntity
  8
0
 62
0
370
-1
 48
1.0
  6
BYLAYER
100
AcDbLine
 10
251.0120000000000005
 20
54.3952000000000027
 30
0.0
 11
251.0120000000000005
 21
53.4748000000000019
 31
0.0
  0
LINE
  5
130
100
AcDbEntity
  8
0
 62
0
370
-1
 48
1.0
  6
BYLAYER
100
AcDbLine
 10
251.0120000000000005
 20
53.4748000000000019
 30
0.0
 11
249.2870000000000061
 21
53.4748000000000019
 31
0.0
  0
LINE
  5
131
100
AcDbEntity
  8
0
 62
0
370
-1
 48
1.0
  6
BYLAYER
100
AcDbLine
 10
249.2870000000000061
 20
53.4748000000000019
 30
0.0
 11
249.2870000000000061
 21
50.2447000000000017
 31
0.0
  0
LINE
  5
132
100
AcDbEntity
  8
0
 62
0
370
-1
 48
1.0
  6
BYLAYER
100
AcDbLine
 10
249.2870000000000061
 20
50.2447000000000017
 30
0.0
 11
248.4629999999999939
 21
50.2447000000000017
 31
0.0
  0
LINE
  5
133
100
AcDbEntity
  8
0
 62
0
370
-1
 48
1.0
  6
BYLAYER
100
AcDbLine
 10
248.4629999999999939
 20
50.2447000000000017
 30
0.0
 11
248.4629999999999939
 21
47.5947000000000031
 31
0.0
  0
LINE
  5
134
100
AcDbEntity
  8
0
 62
0
370
-1
 48
1.0
  6
BYLAYER
100
AcDbLine
 10
248.4629999999999939
 20
47.5947000000000031
 30
0.0
 11
249.2870000000000061
 21
47.5947000000000031
 31
0.0
  0
LINE
  5
135
100
AcDbEntity
  8
0
 62
0
370
-1
 48
1.0
  6
BYLAYER
100
AcDbLine
 10
249.2870000000000061
 20
47.5947000000000031
 30
0.0
 11
249.2870000000000061
 21
41.3247
 31
0.0
  0
LINE
  5
136
100
AcDbEntity
  8
0
 62
0
370
-1
 48
1.0
  6
BYLAYER
100
AcDbLine
 10
249.2870000000000061
 20
41.3247
 30
0.0
 11
251.0120000000000005
 21
41.3247
 31
0.0
  0
LINE
  5
137
100
AcDbEntity
  8
0
 62
0
370
-1
 48
1.0
  6
BYLAYER
100
AcDbLine
 10
251.0120000000000005
 20
41.3247
 30
0.0
 11
251.0120000000000005
 21
40.3447000000000031
 31
0.0
  0
LINE
  5
138
100
AcDbEntity
  8
0
 62
0
370
-1
 48
1.0
  6
BYLAYER
100
AcDbLine
 10
251.0120000000000005
 20
40.3447000000000031
 30
0.0
 11
254.1610000000000014
 21
40.3447000000000031
 31
0.0
  0
LINE
  5
139
100
AcDbEntity
  8
0
 62
0
370
-1
 48
1.0
  6
BYLAYER
100
AcDbLine
 10
254.1610000000000014
 20
40.3447000000000031
 30
0.0
 11
254.1610000000000014
 21
41.3247
 31
0.0
  0
LINE
  5
13A
100
AcDbEntity
  8
0
 62
0
370
-1
 48
1.0
  6
BYLAYER
100
AcDbLine
 10
254.1610000000000014
 20
41.3247
 30
0.0
 11
255.8880000000000052
 21
41.3247
 31
0.0
  0
LINE
  5
13B
100
AcDbEntity
  8
0
 62
0
370
-1
 48
1.0
  6
BYLAYER
100
AcDbLine
 10
255.8880000000000052
 20
41.3247
 30
0.0
 11
255.8880000000000052
 21
45.7950999999999979
 31
0.0
  0
LINE
  5
13C
100
AcDbEntity
  8
0
 62
0
370
-1
 48
1.0
  6
BYLAYER
100
AcDbLine
 10
255.8880000000000052
 20
45.7950999999999979
 30
0.0
 11
257.5620000000000118
 21
45.7950999999999979
 31
0.0
  0
LINE
  5
13D
100
AcDbEntity
  8
0
 62
0
370
-1
 48
1.0
  6
BYLAYER
100
AcDbLine
 10
257.5620000000000118
 20
45.7950999999999979
 30
0.0
 11
257.5620000000000118
 21
41.0944000000000003
 31
0.0
  0
LINE
  5
13E
100
AcDbEntity
  8
0
 62
0
370
-1
 48
1.0
  6
BYLAYER
100
AcDbLine
 10
257.5620000000000118
 20
41.0944000000000003
 30
0.0
 11
271.4130000000000109
 21
41.0944000000000003
 31
0.0
  0
LINE
  5
13F
100
AcDbEntity
  8
0
 62
0
370
-1
 48
1.0
  6
BYLAYER
100
AcDbLine
 10
271.4130000000000109
 20
41.0944000000000003
 30
0.0
 11
271.4130000000000109
 21
45.7950999999999979
 31
0.0
  0
LINE
  5
140
100
AcDbEntity
  8
0
 62
0
370
-1
 48
1.0
  6
BYLAYER
100
AcDbLine
 10
271.4130000000000109
 20
45.7950999999999979
 30
0.0
 11
273.0869999999999891
 21
45.7950999999999979
 31
0.0
  0
LINE
  5
141
100
AcDbEntity
  8
0
 62
0
370
-1
 48
1.0
  6
BYLAYER
100
AcDbLine
 10
273.0869999999999891
 20
45.7950999999999979
 30
0.0
 11
273.0869999999999891
 21
41.3247
 31
0.0
  0
LINE
  5
142
100
AcDbEntity
  8
0
 62
0
370
-1
 48
1.0
  6
BYLAYER
100
AcDbLine
 10
273.0869999999999891
 20
41.3247
 30
0.0
 11
274.8120000000000118
 21
41.3247
 31
0.0
  0
LINE
  5
143
100
AcDbEntity
  8
0
 62
0
370
-1
 48
1.0
  6
BYLAYER
100
AcDbLine
 10
274.8120000000000118
 20
41.3247
 30
0.0
 11
274.8120000000000118
 21
40.3447000000000031
 31
0.0
  0
LINE
  5
144
100
AcDbEntity
  8
0
 62
0
370
-1
 48
1.0
  6
BYLAYER
100
AcDbLine
 10
274.8120000000000118
 20
40.3447000000000031
 30
0.0
 11
277.9630000000000223
 21
40.3447000000000031
 31
0.0
  0
LINE
  5
145
100
AcDbEntity
  8
0
 62
0
370
-1
 48
1.0
  6
BYLAYER
100
AcDbLine
 10
277.9630000000000223
 20
40.3447000000000031
 30
0.0
 11
277.9630000000000223
 21
41.3247
 31
0.0
  0
LINE
  5
146
100
AcDbEntity
  8
0
 62
0
370
-1
 48
1.0
  6
BYLAYER
100
AcDbLine
 10
277.9630000000000223
 20
41.3247
 30
0.0
 11
279.6879999999999882
 21
41.3247
 31
0.0
  0
LINE
  5
147
100
AcDbEntity
  8
0
 62
0
370
-1
 48
1.0
  6
BYLAYER
100
AcDbLine
 10
279.6879999999999882
 20
41.3247
 30
0.0
 11
279.6879999999999882
 21
47.5947000000000031
 31
0.0
  0
LINE
  5
148
100
AcDbEntity
  8
0
 62
0
370
-1
 48
1.0
  6
BYLAYER
100
AcDbLine
 10
279.6879999999999882
 20
47.5947000000000031
 30
0.0
 11
280.5120000000000005
 21
47.5947000000000031
 31
0.0
  0
LINE
  5
149
100
AcDbEntity
  8
0
 62
0
370
-1
 48
1.0
  6
BYLAYER
100
AcDbLine
 10
280.5120000000000005
 20
47.5947000000000031
 30
0.0
 11
280.5120000000000005
 21
50.2447000000000017
 31
0.0
  0
LINE
  5
14A
100
AcDbEntity
  8
0
 62
0
370
-1
 48
1.0
  6
BYLAYER
100
AcDbLine
 10
280.5120000000000005
 20
50.2447000000000017
 30
0.0
 11
279.6879999999999882
 21
50.2447000000000017
 31
0.0
  0
LINE
  5
14B
100
AcDbEntity
  8
0
 62
0
370
-1
 48
1.0
  6
BYLAYER
100
AcDbLine
 10
279.6879999999999882
 20
50.2447000000000017
 30
0.0
 11
279.6879999999999882
 21
53.4748000000000019
 31
0.0
  0
LINE
  5
14C
100
AcDbEntity
  8
0
 62
0
370
-1
 48
1.0
  6
BYLAYER
100
AcDbLine
 10
279.6879999999999882
 20
53.4748000000000019
 30
0.0
 11
277.9630000000000223
 21
53.4748000000000019
 31
0.0
  0
LINE
  5
14D
100
AcDbEntity
  8
0
 62
0
370
-1
 48
1.0
  6
BYLAYER
100
AcDbLine
 10
277.9630000000000223
 20
53.4748000000000019
 30
0.0
 11
277.9630000000000223
 21
54.3952000000000027
 31
0.0
  0
LINE
  5
14E
100
AcDbEntity
  8
0
 62
0
370
-1
 48
1.0
  6
BYLAYER
100
AcDbLine
 10
277.9630000000000223
 20
54.3952000000000027
 30
0.0
 11
274.8120000000000118
 21
54.3952000000000027
 31
0.0
  0
LINE
  5
14F
100
AcDbEntity
  8
0
 62
0
370
-1
 48
1.0
  6
BYLAYER
100
AcDbLine
 10
274.8120000000000118
 20
54.3952000000000027
 30
0.0
 11
274.8120000000000118
 21
53.4748000000000019
 31
0.0
  0
LINE
  5
150
100
AcDbEntity
  8
0
 62
0
370
-1
 48
1.0
  6
BYLAYER
100
AcDbLine
 10
274.8120000000000118
 20
53.4748000000000019
 30
0.0
 11
273.0869999999999891
 21
53.4748000000000019
 31
0.0
  0
LINE
  5
151
100
AcDbEntity
  8
0
 62
0
370
-1
 48
1.0
  6
BYLAYER
100
AcDbLine
 10
273.0869999999999891
 20
53.4748000000000019
 30
0.0
 11
273.0869999999999891
 21
50.2447000000000017
 31
0.0
  0
LINE
  5
152
100
AcDbEntity
  8
0
 62
0
370
-1
 48
1.0
  6
BYLAYER
100
AcDbLine
 10
273.0869999999999891
 20
50.2447000000000017
 30
0.0
 11
271.4130000000000109
 21
50.2447000000000017
 31
0.0
  0
LINE
  5
153
100
AcDbEntity
  8
0
 62
0
370
-1
 48
1.0
  6
BYLAYER
100
AcDbLine
 10
271.4130000000000109
 20
50.2447000000000017
 30
0.0
 11
271.4130000000000109
 21
54.9450999999999965
 31
0.0
  0
LINE
  5
154
100
AcDbEntity
  8
0
 62
0
370
-1
 48
1.0
  6
BYLAYER
100
AcDbLine
 10
271.4130000000000109
 20
54.9450999999999965
 30
0.0
 11
257.5620000000000118
 21
54.9450999999999965
 31
0.0
  0
LINE
  5
155
100
AcDbEntity
  8
0
 62
0
370
-1
 48
1.0
  6
BYLAYER
100
AcDbLine
 10
226.6059999999999945
 20
54.9450999999999965
 30
0.0
 11
240.4569999999999936
 21
54.9450999999999965
 31
0.0
  0
LINE
  5
156
100
AcDbEntity
  8
0
 62
0
370
-1
 48
1.0
  6
BYLAYER
100
AcDbLine
 10
240.4569999999999936
 20
54.9450999999999965
 30
0.0
 11
240.4569999999999936
 21
41.0944000000000003
 31
0.0
  0
LINE
  5
157
100
AcDbEntity
  8
0
 62
0
370
-1
 48
1.0
  6
BYLAYER
100
AcDbLine
 10
240.4569999999999936
 20
41.0944000000000003
 30
0.0
 11
226.6059999999999945
 21
41.0944000000000003
 31
0.0
  0
LINE
  5
158
100
AcDbEntity
  8
0
 62
0
370
-1
 48
1.0
  6
BYLAYER
100
AcDbLine
 10
226.6059999999999945
 20
41.0944000000000003
 30
0.0
 11
226.6059999999999945
 21
54.9450999999999965
 31
0.0
  0
LINE
  5
159
100
AcDbEntity
  8
0
 62
0
370
-1
 48
1.0
  6
BYLAYER
100
AcDbLine
 10
207.5560000000000116
 20
54.9450999999999965
 30
0.0
 11
221.4070000000000107
 21
54.9450999999999965
 31
0.0
  0
LINE
  5
15A
100
AcDbEntity
  8
0
 62
0
370
-1
 48
1.0
  6
BYLAYER
100
AcDbLine
 10
221.4070000000000107
 20
54.9450999999999965
 30
0.0
 11
221.4070000000000107
 21
41.0944000000000003
 31
0.0
  0
LINE
  5
15B
100
AcDbEntity
  8
0
 62
0
370
-1
 48
1.0
  6
BYLAYER
100
AcDbLine
 10
221.4070000000000107
 20
41.0944000000000003
 30
0.0
 11
207.5560000000000116
 21
41.0944000000000003
 31
0.0
  0
LINE
  5
15C
100
AcDbEntity
  8
0
 62
0
370
-1
 48
1.0
  6
BYLAYER
100
AcDbLine
 10
207.5560000000000116
 20
41.0944000000000003
 30
0.0
 11
207.5560000000000116
 21
54.9450999999999965
 31
0.0
  0
LINE
  5
15D
100
AcDbEntity
  8
0
 62
0
370
-1
 48
1.0
  6
BYLAYER
100
AcDbLine
 10
188.5060000000000002
 20
54.9450999999999965
 30
0.0
 11
202.3569999999999993
 21
54.9450999999999965
 31
0.0
  0
LINE
  5
15E
100
AcDbEntity
  8
0
 62
0
370
-1
 48
1.0
  6
BYLAYER
100
AcDbLine
 10
202.3569999999999993
 20
54.9450999999999965
 30
0.0
 11
202.3569999999999993
 21
41.0944000000000003
 31
0.0
  0
LINE
  5
15F
100
AcDbEntity
  8
0
 62
0
370
-1
 48
1.0
  6
BYLAYER
100
AcDbLine
 10
202.3569999999999993
 20
41.0944000000000003
 30
0.0
 11
188.5060000000000002
 21
41.0944000000000003
 31
0.0
  0
LINE
  5
160
100
AcDbEntity
  8
0
 62
0
370
-1
 48
1.0
  6
BYLAYER
100
AcDbLine
 10
188.5060000000000002
 20
41.0944000000000003
 30
0.0
 11
188.5060000000000002
 21
54.9450999999999965
 31
0.0
  0
LINE
  5
161
100
AcDbEntity
  8
0
 62
0
370
-1
 48
1.0
  6
BYLAYER
100
AcDbLine
 10
169.4559999999999889
 20
54.9450999999999965
 30
0.0
 11
183.3069999999999879
 21
54.9450999999999965
 31
0.0
  0
LINE
  5
162
100
AcDbEntity
  8
0
 62
0
370
-1
 48
1.0
  6
BYLAYER
100
AcDbLine
 10
183.3069999999999879
 20
54.9450999999999965
 30
0.0
 11
183.3069999999999879
 21
41.0944000000000003
 31
0.0
  0
LINE
  5
163
100
AcDbEntity
  8
0
 62
0
370
-1
 48
1.0
  6
BYLAYER
100
AcDbLine
 10
183.3069999999999879
 20
41.0944000000000003
 30
0.0
 11
169.4559999999999889
 21
41.0944000000000003
 31
0.0
  0
LINE
  5
164
100
AcDbEntity
  8
0
 62
0
370
-1
 48
1.0
  6
BYLAYER
100
AcDbLine
 10
169.4559999999999889
 20
41.0944000000000003
 30
0.0
 11
169.4559999999999889
 21
54.9450999999999965
 31
0.0
  0
LINE
  5
165
100
AcDbEntity
  8
0
 62
0
370
-1
 48
1.0
  6
BYLAYER
100
AcDbLine
 10
150.4060000000000059
 20
54.9450999999999965
 30
0.0
 11
164.257000000000005
 21
54.9450999999999965
 31
0.0
  0
LINE
  5
166
100
AcDbEntity
  8
0
 62
0
370
-1
 48
1.0
  6
BYLAYER
100
AcDbLine
 10
164.257000000000005
 20
54.9450999999999965
 30
0.0
 11
164.257000000000005
 21
41.0944000000000003
 31
0.0
  0
LINE
  5
167
100
AcDbEntity
  8
0
 62
0
370
-1
 48
1.0
  6
BYLAYER
100
AcDbLine
 10
164.257000000000005
 20
41.0944000000000003
 30
0.0
 11
150.4060000000000059
 21
41.0944000000000003
 31
0.0
  0
LINE
  5
168
100
AcDbEntity
  8
0
 62
0
370
-1
 48
1.0
  6
BYLAYER
100
AcDbLine
 10
150.4060000000000059
 20
41.0944000000000003
 30
0.0
 11
150.4060000000000059
 21
54.9450999999999965
 31
0.0
  0
LINE
  5
169
100
AcDbEntity
  8
0
 62
0
370
-1
 48
1.0
  6
BYLAYER
100
AcDbLine
 10
131.3559999999999945
 20
54.9450999999999965
 30
0.0
 11
145.2069999999999936
 21
54.9450999999999965
 31
0.0
  0
LINE
  5
16A
100
AcDbEntity
  8
0
 62
0
370
-1
 48
1.0
  6
BYLAYER
100
AcDbLine
 10
145.2069999999999936
 20
54.9450999999999965
 30
0.0
 11
145.2069999999999936
 21
41.0944000000000003
 31
0.0
  0
LINE
  5
16B
100
AcDbEntity
  8
0
 62
0
370
-1
 48
1.0
  6
BYLAYER
100
AcDbLine
 10
145.2069999999999936
 20
41.0944000000000003
 30
0.0
 11
131.3559999999999945
 21
41.0944000000000003
 31
0.0
  0
LINE
  5
16C
100
AcDbEntity
  8
0
 62
0
370
-1
 48
1.0
  6
BYLAYER
100
AcDbLine
 10
131.3559999999999945
 20
41.0944000000000003
 30
0.0
 11
131.3559999999999945
 21
54.9450999999999965
 31
0.0
  0
LINE
  5
16D
100
AcDbEntity
  8
0
 62
0
370
-1
 48
1.0
  6
BYLAYER
100
AcDbLine
 10
112.3059999999999974
 20
54.9450999999999965
 30
0.0
 11
126.1569999999999965
 21
54.9450999999999965
 31
0.0
  0
LINE
  5
16E
100
AcDbEntity
  8
0
 62
0
370
-1
 48
1.0
  6
BYLAYER
100
AcDbLine
 10
126.1569999999999965
 20
54.9450999999999965
 30
0.0
 11
126.1569999999999965
 21
41.0944000000000003
 31
0.0
  0
LINE
  5
16F
100
AcDbEntity
  8
0
 62
0
370
-1
 48
1.0
  6
BYLAYER
100
AcDbLine
 10
126.1569999999999965
 20
41.0944000000000003
 30
0.0
 11
112.3059999999999974
 21
41.0944000000000003
 31
0.0
  0
LINE
  5
170
100
AcDbEntity
  8
0
 62
0
370
-1
 48
1.0
  6
BYLAYER
100
AcDbLine
 10
112.3059999999999974
 20
41.0944000000000003
 30
0.0
 11
112.3059999999999974
 21
54.9450999999999965
 31
0.0
  0
LINE
  5
171
100
AcDbEntity
  8
0
 62
0
370
-1
 48
1.0
  6
BYLAYER
100
AcDbLine
 10
93.2561000000000035
 20
54.9450999999999965
 30
0.0
 11
107.1069999999999993
 21
54.9450999999999965
 31
0.0
  0
LINE
  5
172
100
AcDbEntity
  8
0
 62
0
370
-1
 48
1.0
  6
BYLAYER
100
AcDbLine
 10
107.1069999999999993
 20
54.9450999999999965
 30
0.0
 11
107.1069999999999993
 21
41.0944000000000003
 31
0.0
  0
LINE
  5
173
100
AcDbEntity
  8
0
 62
0
370
-1
 48
1.0
  6
BYLAYER
100
AcDbLine
 10
107.1069999999999993
 20
41.0944000000000003
 30
0.0
 11
93.2561000000000035
 21
41.0944000000000003
 31
0.0
  0
LINE
  5
174
100
AcDbEntity
  8
0
 62
0
370
-1
 48
1.0
  6
BYLAYER
100
AcDbLine
 10
93.2561000000000035
 20
41.0944000000000003
 30
0.0
 11
93.2561000000000035
 21
54.9450999999999965
 31
0.0
  0
LINE
  5
175
100
AcDbEntity
  8
0
 62
0
370
-1
 48
1.0
  6
BYLAYER
100
AcDbLine
 10
74.2061000000000064
 20
54.9450999999999965
 30
0.0
 11
88.0564999999999998
 21
54.9450999999999965
 31
0.0
  0
LINE
  5
176
100
AcDbEntity
  8
0
 62
0
370
-1
 48
1.0
  6
BYLAYER
100
AcDbLine
 10
88.0564999999999998
 20
54.9450999999999965
 30
0.0
 11
88.0564999999999998
 21
41.0944000000000003
 31
0.0
  0
LINE
  5
177
100
AcDbEntity
  8
0
 62
0
370
-1
 48
1.0
  6
BYLAYER
100
AcDbLine
 10
88.0564999999999998
 20
41.0944000000000003
 30
0.0
 11
74.2061000000000064
 21
41.0944000000000003
 31
0.0
  0
LINE
  5
178
100
AcDbEntity
  8
0
 62
0
370
-1
 48
1.0
  6
BYLAYER
100
AcDbLine
 10
74.2061000000000064
 20
41.0944000000000003
 30
0.0
 11
74.2061000000000064
 21
54.9450999999999965
 31
0.0
  0
LINE
  5
179
100
AcDbEntity
  8
0
 62
0
370
-1
 48
1.0
  6
BYLAYER
100
AcDbLine
 10
55.1561000000000021
 20
54.9450999999999965
 30
0.0
 11
69.0065000000000026
 21
54.9450999999999965
 31
0.0
  0
LINE
  5
17A
100
AcDbEntity
  8
0
 62
0
370
-1
 48
1.0
  6
BYLAYER
100
AcDbLine
 10
69.0065000000000026
 20
54.9450999999999965
 30
0.0
 11
69.0065000000000026
 21
41.0944000000000003
 31
0.0
  0
LINE
  5
17B
100
AcDbEntity
  8
0
 62
0
370
-1
 48
1.0
  6
BYLAYER
100
AcDbLine
 10
69.0065000000000026
 20
41.0944000000000003
 30
0.0
 11
55.1561000000000021
 21
41.0944000000000003
 31
0.0
  0
LINE
  5
17C
100
AcDbEntity
  8
0
 62
0
370
-1
 48
1.0
  6
BYLAYER
100
AcDbLine
 10
55.1561000000000021
 20
41.0944000000000003
 30
0.0
 11
55.1561000000000021
 21
54.9450999999999965
 31
0.0
  0
LINE
  5
17D
100
AcDbEntity
  8
0
 62
0
370
-1
 48
1.0
  6
BYLAYER
100
AcDbLine
 10
36.1060999999999979
 20
54.9450999999999965
 30
0.0
 11
49.9564999999999984
 21
54.9450999999999965
 31
0.0
  0
LINE
  5
17E
100
AcDbEntity
  8
0
 62
0
370
-1
 48
1.0
  6
BYLAYER
100
AcDbLine
 10
49.9564999999999984
 20
54.9450999999999965
 30
0.0
 11
49.9564999999999984
 21
41.0944000000000003
 31
0.0
  0
LINE
  5
17F
100
AcDbEntity
  8
0
 62
0
370
-1
 48
1.0
  6
BYLAYER
100
AcDbLine
 10
49.9564999999999984
 20
41.0944000000000003
 30
0.0
 11
36.1060999999999979
 21
41.0944000000000003
 31
0.0
  0
LINE
  5
180
100
AcDbEntity
  8
0
 62
0
370
-1
 48
1.0
  6
BYLAYER
100
AcDbLine
 10
36.1060999999999979
 20
41.0944000000000003
 30
0.0
 11
36.1060999999999979
 21
54.9450999999999965
 31
0.0
  0
LINE
  5
181
100
AcDbEntity
  8
0
 62
0
370
-1
 48
1.0
  6
BYLAYER
100
AcDbLine
 10
9.9122400000000006
 20
54.9450999999999965
 30
0.0
 11
23.7628999999999984
 21
54.9450999999999965
 31
0.0
  0
LINE
  5
182
100
AcDbEntity
  8
0
 62
0
370
-1
 48
1.0
  6
BYLAYER
100
AcDbLine
 10
23.7628999999999984
 20
54.9450999999999965
 30
0.0
 11
23.7628999999999984
 21
41.0944000000000003
 31
0.0
  0
LINE
  5
183
100
AcDbEntity
  8
0
 62
0
370
-1
 48
1.0
  6
BYLAYER
100
AcDbLine
 10
23.7628999999999984
 20
41.0944000000000003
 30
0.0
 11
9.9122400000000006
 21
41.0944000000000003
 31
0.0
  0
LINE
  5
184
100
AcDbEntity
  8
0
 62
0
370
-1
 48
1.0
  6
BYLAYER
100
AcDbLine
 10
9.9122400000000006
 20
41.0944000000000003
 30
0.0
 11
9.9122400000000006
 21
54.9450999999999965
 31
0.0
  0
LINE
  5
185
100
AcDbEntity
  8
0
 62
0
370
-1
 48
1.0
  6
BYLAYER
100
AcDbLine
 10
264.7060000000000173
 20
73.9950999999999937
 30
0.0
 11
278.5570000000000164
 21
73.9950999999999937
 31
0.0
  0
LINE
  5
186
100
AcDbEntity
  8
0
 62
0
370
-1
 48
1.0
  6
BYLAYER
100
AcDbLine
 10
278.5570000000000164
 20
73.9950999999999937
 30
0.0
 11
278.5570000000000164
 21
60.1443999999999974
 31
0.0
  0
LINE
  5
187
100
AcDbEntity
  8
0
 62
0
370
-1
 48
1.0
  6
BYLAYER
100
AcDbLine
 10
278.5570000000000164
 20
60.1443999999999974
 30
0.0
 11
264.7060000000000173
 21
60.1443999999999974
 31
0.0
  0
LINE
  5
188
100
AcDbEntity
  8
0
 62
0
370
-1
 48
1.0
  6
BYLAYER
100
AcDbLine
 10
264.7060000000000173
 20
60.1443999999999974
 30
0.0
 11
264.7060000000000173
 21
73.9950999999999937
 31
0.0
  0
LINE
  5
189
100
AcDbEntity
  8
0
 62
0
370
-1
 48
1.0
  6
BYLAYER
100
AcDbLine
 10
240.8950000000000102
 20
73.9950999999999937
 30
0.0
 11
254.7439999999999998
 21
73.9950999999999937
 31
0.0
  0
LINE
  5
18A
100
AcDbEntity
  8
0
 62
0
370
-1
 48
1.0
  6
BYLAYER
100
AcDbLine
 10
254.7439999999999998
 20
73.9950999999999937
 30
0.0
 11
254.7439999999999998
 21
60.1443999999999974
 31
0.0
  0
LINE
  5
18B
100
AcDbEntity
  8
0
 62
0
370
-1
 48
1.0
  6
BYLAYER
100
AcDbLine
 10
254.7439999999999998
 20
60.1443999999999974
 30
0.0
 11
240.8950000000000102
 21
60.1443999999999974
 31
0.0
  0
LINE
  5
18C
100
AcDbEntity
  8
0
 62
0
370
-1
 48
1.0
  6
BYLAYER
100
AcDbLine
 10
240.8950000000000102
 20
60.1443999999999974
 30
0.0
 11
240.8950000000000102
 21
73.9950999999999937
 31
0.0
  0
LINE
  5
18D
100
AcDbEntity
  8
0
 62
0
370
-1
 48
1.0
  6
BYLAYER
100
AcDbLine
 10
221.8449999999999989
 20
73.9950999999999937
 30
0.0
 11
235.6939999999999884
 21
73.9950999999999937
 31
0.0
  0
LINE
  5
18E
100
AcDbEntity
  8
0
 62
0
370
-1
 48
1.0
  6
BYLAYER
100
AcDbLine
 10
235.6939999999999884
 20
73.9950999999999937
 30
0.0
 11
235.6939999999999884
 21
60.1443999999999974
 31
0.0
  0
LINE
  5
18F
100
AcDbEntity
  8
0
 62
0
370
-1
 48
1.0
  6
BYLAYER
100
AcDbLine
 10
235.6939999999999884
 20
60.1443999999999974
 30
0.0
 11
221.8449999999999989
 21
60.1443999999999974
 31
0.0
  0
LINE
  5
190
100
AcDbEntity
  8
0
 62
0
370
-1
 48
1.0
  6
BYLAYER
100
AcDbLine
 10
221.8449999999999989
 20
60.1443999999999974
 30
0.0
 11
221.8449999999999989
 21
73.9950999999999937
 31
0.0
  0
LINE
  5
191
100
AcDbEntity
  8
0
 62
0
370
-1
 48
1.0
  6
BYLAYER
100
AcDbLine
 10
202.7949999999999875
 20
73.9950999999999937
 30
0.0
 11
216.6440000000000055
 21
73.9950999999999937
 31
0.0
  0
LINE
  5
192
100
AcDbEntity
  8
0
 62
0
370
-1
 48
1.0
  6
BYLAYER
100
AcDbLine
 10
216.6440000000000055
 20
73.9950999999999937
 30
0.0
 11
216.6440000000000055
 21
60.1443999999999974
 31
0.0
  0
LINE
  5
193
100
AcDbEntity
  8
0
 62
0
370
-1
 48
1.0
  6
BYLAYER
100
AcDbLine
 10
216.6440000000000055
 20
60.1443999999999974
 30
0.0
 11
202.7949999999999875
 21
60.1443999999999974
 31
0.0
  0
LINE
  5
194
100
AcDbEntity
  8
0
 62
0
370
-1
 48
1.0
  6
BYLAYER
100
AcDbLine
 10
202.7949999999999875
 20
60.1443999999999974
 30
0.0
 11
202.7949999999999875
 21
73.9950999999999937
 31
0.0
  0
LINE
  5
195
100
AcDbEntity
  8
0
 62
0
370
-1
 48
1.0
  6
BYLAYER
100
AcDbLine
 10
183.7450000000000045
 20
73.9950999999999937
 30
0.0
 11
197.5939999999999941
 21
73.9950999999999937
 31
0.0
  0
LINE
  5
196
100
AcDbEntity
  8
0
 62
0
370
-1
 48
1.0
  6
BYLAYER
100
AcDbLine
 10
197.5939999999999941
 20
73.9950999999999937
 30
0.0
 11
197.5939999999999941
 21
60.1443999999999974
 31
0.0
  0
LINE
  5
197
100
AcDbEntity
  8
0
 62
0
370
-1
 48
1.0
  6
BYLAYER
100
AcDbLine
 10
197.5939999999999941
 20
60.1443999999999974
 30
0.0
 11
183.7450000000000045
 21
60.1443999999999974
 31
0.0
  0
LINE
  5
198
100
AcDbEntity
  8
0
 62
0
370
-1
 48
1.0
  6
BYLAYER
100
AcDbLine
 10
183.7450000000000045
 20
60.1443999999999974
 30
0.0
 11
183.7450000000000045
 21
73.9950999999999937
 31
0.0
  0
LINE
  5
199
100
AcDbEntity
  8
0
 62
0
370
-1
 48
1.0
  6
BYLAYER
100
AcDbLine
 10
164.6949999999999932
 20
73.9950999999999937
 30
0.0
 11
178.5440000000000111
 21
73.9950999999999937
 31
0.0
  0
LINE
  5
19A
100
AcDbEntity
  8
0
 62
0
370
-1
 48
1.0
  6
BYLAYER
100
AcDbLine
 10
178.5440000000000111
 20
73.9950999999999937
 30
0.0
 11
178.5440000000000111
 21
60.1443999999999974
 31
0.0
  0
LINE
  5
19B
100
AcDbEntity
  8
0
 62
0
370
-1
 48
1.0
  6
BYLAYER
100
AcDbLine
 10
178.5440000000000111
 20
60.1443999999999974
 30
0.0
 11
164.6949999999999932
 21
60.1443999999999974
 31
0.0
  0
LINE
  5
19C
100
AcDbEntity
  8
0
 62
0
370
-1
 48
1.0
  6
BYLAYER
100
AcDbLine
 10
164.6949999999999932
 20
60.1443999999999974
 30
0.0
 11
164.6949999999999932
 21
73.9950999999999937
 31
0.0
  0
LINE
  5
19D
100
AcDbEntity
  8
0
 62
0
370
-1
 48
1.0
  6
BYLAYER
100
AcDbLine
 10
145.6440000000000055
 20
73.9950999999999937
 30
0.0
 11
159.4939999999999998
 21
73.9950999999999937
 31
0.0
  0
LINE
  5
19E
100
AcDbEntity
  8
0
 62
0
370
-1
 48
1.0
  6
BYLAYER
100
AcDbLine
 10
159.4939999999999998
 20
73.9950999999999937
 30
0.0
 11
159.4939999999999998
 21
60.1443999999999974
 31
0.0
  0
LINE
  5
19F
100
AcDbEntity
  8
0
 62
0
370
-1
 48
1.0
  6
BYLAYER
100
AcDbLine
 10
159.4939999999999998
 20
60.1443999999999974
 30
0.0
 11
145.6440000000000055
 21
60.1443999999999974
 31
0.0
  0
LINE
  5
1A0
100
AcDbEntity
  8
0
 62
0
370
-1
 48
1.0
  6
BYLAYER
100
AcDbLine
 10
145.6440000000000055
 20
60.1443999999999974
 30
0.0
 11
145.6440000000000055
 21
73.9950999999999937
 31
0.0
  0
LINE
  5
1A1
100
AcDbEntity
  8
0
 62
0
370
-1
 48
1.0
  6
BYLAYER
100
AcDbLine
 10
126.5939999999999941
 20
73.9950999999999937
 30
0.0
 11
140.4439999999999884
 21
73.9950999999999937
 31
0.0
  0
LINE
  5
1A2
100
AcDbEntity
  8
0
 62
0
370
-1
 48
1.0
  6
BYLAYER
100
AcDbLine
 10
140.4439999999999884
 20
73.9950999999999937
 30
0.0
 11
140.4439999999999884
 21
60.1443999999999974
 31
0.0
  0
LINE
  5
1A3
100
AcDbEntity
  8
0
 62
0
370
-1
 48
1.0
  6
BYLAYER
100
AcDbLine
 10
140.4439999999999884
 20
60.1443999999999974
 30
0.0
 11
126.5939999999999941
 21
60.1443999999999974
 31
0.0
  0
LINE
  5
1A4
100
AcDbEntity
  8
0
 62
0
370
-1
 48
1.0
  6
BYLAYER
100
AcDbLine
 10
126.5939999999999941
 20
60.1443999999999974
 30
0.0
 11
126.5939999999999941
 21
73.9950999999999937
 31
0.0
  0
LINE
  5
1A5
100
AcDbEntity
  8
0
 62
0
370
-1
 48
1.0
  6
BYLAYER
100
AcDbLine
 10
107.5439999999999969
 20
73.9950999999999937
 30
0.0
 11
121.3940000000000055
 21
73.9950999999999937
 31
0.0
  0
LINE
  5
1A6
100
AcDbEntity
  8
0
 62
0
370
-1
 48
1.0
  6
BYLAYER
100
AcDbLine
 10
121.3940000000000055
 20
73.9950999999999937
 30
0.0
 11
121.3940000000000055
 21
60.1443999999999974
 31
0.0
  0
LINE
  5
1A7
100
AcDbEntity
  8
0
 62
0
370
-1
 48
1.0
  6
BYLAYER
100
AcDbLine
 10
121.3940000000000055
 20
60.1443999999999974
 30
0.0
 11
107.5439999999999969
 21
60.1443999999999974
 31
0.0
  0
LINE
  5
1A8
100
AcDbEntity
  8
0
 62
0
370
-1
 48
1.0
  6
BYLAYER
100
AcDbLine
 10
107.5439999999999969
 20
60.1443999999999974
 30
0.0
 11
107.5439999999999969
 21
73.9950999999999937
 31
0.0
  0
LINE
  5
1A9
100
AcDbEntity
  8
0
 62
0
370
-1
 48
1.0
  6
BYLAYER
100
AcDbLine
 10
88.4936000000000007
 20
73.9950999999999937
 30
0.0
 11
102.3439999999999941
 21
73.9950999999999937
 31
0.0
  0
LINE
  5
1AA
100
AcDbEntity
  8
0
 62
0
370
-1
 48
1.0
  6
BYLAYER
100
AcDbLine
 10
102.3439999999999941
 20
73.9950999999999937
 30
0.0
 11
102.3439999999999941
 21
60.1443999999999974
 31
0.0
  0
LINE
  5
1AB
100
AcDbEntity
  8
0
 62
0
370
-1
 48
1.0
  6
BYLAYER
100
AcDbLine
 10
102.3439999999999941
 20
60.1443999999999974
 30
0.0
 11
88.4936000000000007
 21
60.1443999999999974
 31
0.0
  0
LINE
  5
1AC
100
AcDbEntity
  8
0
 62
0
370
-1
 48
1.0
  6
BYLAYER
100
AcDbLine
 10
88.4936000000000007
 20
60.1443999999999974
 30
0.0
 11
88.4936000000000007
 21
73.9950999999999937
 31
0.0
  0
LINE
  5
1AD
100
AcDbEntity
  8
0
 62
0
370
-1
 48
1.0
  6
BYLAYER
100
AcDbLine
 10
69.4449999999999932
 20
73.9950999999999937
 30
0.0
 11
83.2939999999999969
 21
73.9950999999999937
 31
0.0
  0
LINE
  5
1AE
100
AcDbEntity
  8
0
 62
0
370
-1
 48
1.0
  6
BYLAYER
100
AcDbLine
 10
83.2939999999999969
 20
73.9950999999999937
 30
0.0
 11
83.2939999999999969
 21
60.1443999999999974
 31
0.0
  0
LINE
  5
1AF
100
AcDbEntity
  8
0
 62
0
370
-1
 48
1.0
  6
BYLAYER
100
AcDbLine
 10
83.2939999999999969
 20
60.1443999999999974
 30
0.0
 11
69.4449999999999932
 21
60.1443999999999974
 31
0.0
  0
LINE
  5
1B0
100
AcDbEntity
  8
0
 62
0
370
-1
 48
1.0
  6
BYLAYER
100
AcDbLine
 10
69.4449999999999932
 20
60.1443999999999974
 30
0.0
 11
69.4449999999999932
 21
73.9950999999999937
 31
0.0
  0
LINE
  5
1B1
100
AcDbEntity
  8
0
 62
0
370
-1
 48
1.0
  6
BYLAYER
100
AcDbLine
 10
50.3950000000000031
 20
73.9950999999999937
 30
0.0
 11
64.2439999999999998
 21
73.9950999999999937
 31
0.0
  0
LINE
  5
1B2
100
AcDbEntity
  8
0
 62
0
370
-1
 48
1.0
  6
BYLAYER
100
AcDbLine
 10
64.2439999999999998
 20
73.9950999999999937
 30
0.0
 11
64.2439999999999998
 21
60.1443999999999974
 31
0.0
  0
LINE
  5
1B3
100
AcDbEntity
  8
0
 62
0
370
-1
 48
1.0
  6
BYLAYER
100
AcDbLine
 10
64.2439999999999998
 20
60.1443999999999974
 30
0.0
 11
50.3950000000000031
 21
60.1443999999999974
 31
0.0
  0
LINE
  5
1B4
100
AcDbEntity
  8
0
 62
0
370
-1
 48
1.0
  6
BYLAYER
100
AcDbLine
 10
50.3950000000000031
 20
60.1443999999999974
 30
0.0
 11
50.3950000000000031
 21
73.9950999999999937
 31
0.0
  0
LINE
  5
1B5
100
AcDbEntity
  8
0
 62
0
370
-1
 48
1.0
  6
BYLAYER
100
AcDbLine
 10
31.3448999999999991
 20
73.9950999999999937
 30
0.0
 11
45.1940000000000026
 21
73.9950999999999937
 31
0.0
  0
LINE
  5
1B6
100
AcDbEntity
  8
0
 62
0
370
-1
 48
1.0
  6
BYLAYER
100
AcDbLine
 10
45.1940000000000026
 20
73.9950999999999937
 30
0.0
 11
45.1940000000000026
 21
60.1443999999999974
 31
0.0
  0
LINE
  5
1B7
100
AcDbEntity
  8
0
 62
0
370
-1
 48
1.0
  6
BYLAYER
100
AcDbLine
 10
45.1940000000000026
 20
60.1443999999999974
 30
0.0
 11
31.3448999999999991
 21
60.1443999999999974
 31
0.0
  0
LINE
  5
1B8
100
AcDbEntity
  8
0
 62
0
370
-1
 48
1.0
  6
BYLAYER
100
AcDbLine
 10
31.3448999999999991
 20
60.1443999999999974
 30
0.0
 11
31.3448999999999991
 21
73.9950999999999937
 31
0.0
  0
LINE
  5
1B9
100
AcDbEntity
  8
0
 62
0
370
-1
 48
1.0
  6
BYLAYER
100
AcDbLine
 10
7.5309900000000001
 20
73.9950999999999937
 30
0.0
 11
21.3816999999999986
 21
73.9950999999999937
 31
0.0
  0
LINE
  5
1BA
100
AcDbEntity
  8
0
 62
0
370
-1
 48
1.0
  6
BYLAYER
100
AcDbLine
 10
21.3816999999999986
 20
73.9950999999999937
 30
0.0
 11
21.3816999999999986
 21
60.1443999999999974
 31
0.0
  0
LINE
  5
1BB
100
AcDbEntity
  8
0
 62
0
370
-1
 48
1.0
  6
BYLAYER
100
AcDbLine
 10
21.3816999999999986
 20
60.1443999999999974
 30
0.0
 11
7.5309900000000001
 21
60.1443999999999974
 31
0.0
  0
LINE
  5
1BC
100
AcDbEntity
  8
0
 62
0
370
-1
 48
1.0
  6
BYLAYER
100
AcDbLine
 10
7.5309900000000001
 20
60.1443999999999974
 30
0.0
 11
7.5309900000000001
 21
73.9950999999999937
 31
0.0
  0
LINE
  5
1BD
100
AcDbEntity
  8
0
 62
0
370
-1
 48
1.0
  6
BYLAYER
100
AcDbLine
 10
269.4700000000000273
 20
93.045100000000005
 30
0.0
 11
283.3190000000000168
 21
93.045100000000005
 31
0.0
  0
LINE
  5
1BE
100
AcDbEntity
  8
0
 62
0
370
-1
 48
1.0
  6
BYLAYER
100
AcDbLine
 10
283.3190000000000168
 20
93.045100000000005
 30
0.0
 11
283.3190000000000168
 21
79.1944000000000017
 31
0.0
  0
LINE
  5
1BF
100
AcDbEntity
  8
0
 62
0
370
-1
 48
1.0
  6
BYLAYER
100
AcDbLine
 10
283.3190000000000168
 20
79.1944000000000017
 30
0.0
 11
269.4700000000000273
 21
79.1944000000000017
 31
0.0
  0
LINE
  5
1C0
100
AcDbEntity
  8
0
 62
0
370
-1
 48
1.0
  6
BYLAYER
100
AcDbLine
 10
269.4700000000000273
 20
79.1944000000000017
 30
0.0
 11
269.4700000000000273
 21
93.045100000000005
 31
0.0
  0
LINE
  5
1C1
100
AcDbEntity
  8
0
 62
0
370
-1
 48
1.0
  6
BYLAYER
100
AcDbLine
 10
250.4199999999999875
 20
93.045100000000005
 30
0.0
 11
264.2690000000000055
 21
93.045100000000005
 31
0.0
  0
LINE
  5
1C2
100
AcDbEntity
  8
0
 62
0
370
-1
 48
1.0
  6
BYLAYER
100
AcDbLine
 10
264.2690000000000055
 20
93.045100000000005
 30
0.0
 11
264.2690000000000055
 21
79.1944000000000017
 31
0.0
  0
LINE
  5
1C3
100
AcDbEntity
  8
0
 62
0
370
-1
 48
1.0
  6
BYLAYER
100
AcDbLine
 10
264.2690000000000055
 20
79.1944000000000017
 30
0.0
 11
250.4199999999999875
 21
79.1944000000000017
 31
0.0
  0
LINE
  5
1C4
100
AcDbEntity
  8
0
 62
0
370
-1
 48
1.0
  6
BYLAYER
100
AcDbLine
 10
250.4199999999999875
 20
79.1944000000000017
 30
0.0
 11
250.4199999999999875
 21
93.045100000000005
 31
0.0
  0
LINE
  5
1C5
100
AcDbEntity
  8
0
 62
0
370
-1
 48
1.0
  6
BYLAYER
100
AcDbLine
 10
231.3700000000000045
 20
93.045100000000005
 30
0.0
 11
245.2189999999999941
 21
93.045100000000005
 31
0.0
  0
LINE
  5
1C6
100
AcDbEntity
  8
0
 62
0
370
-1
 48
1.0
  6
BYLAYER
100
AcDbLine
 10
245.2189999999999941
 20
93.045100000000005
 30
0.0
 11
245.2189999999999941
 21
79.1944000000000017
 31
0.0
  0
LINE
  5
1C7
100
AcDbEntity
  8
0
 62
0
370
-1
 48
1.0
  6
BYLAYER
100
AcDbLine
 10
245.2189999999999941
 20
79.1944000000000017
 30
0.0
 11
231.3700000000000045
 21
79.1944000000000017
 31
0.0
  0
LINE
  5
1C8
100
AcDbEntity
  8
0
 62
0
370
-1
 48
1.0
  6
BYLAYER
100
AcDbLine
 10
231.3700000000000045
 20
79.1944000000000017
 30
0.0
 11
231.3700000000000045
 21
93.045100000000005
 31
0.0
  0
LINE
  5
1C9
100
AcDbEntity
  8
0
 62
0
370
-1
 48
1.0
  6
BYLAYER
100
AcDbLine
 10
212.3199999999999932
 20
93.045100000000005
 30
0.0
 11
226.1690000000000111
 21
93.045100000000005
 31
0.0
  0
LINE
  5
1CA
100
AcDbEntity
  8
0
 62
0
370
-1
 48
1.0
  6
BYLAYER
100
AcDbLine
 10
226.1690000000000111
 20
93.045100000000005
 30
0.0
 11
226.1690000000000111
 21
79.1944000000000017
 31
0.0
  0
LINE
  5
1CB
100
AcDbEntity
  8
0
 62
0
370
-1
 48
1.0
  6
BYLAYER
100
AcDbLine
 10
226.1690000000000111
 20
79.1944000000000017
 30
0.0
 11
212.3199999999999932
 21
79.1944000000000017
 31
0.0
  0
LINE
  5
1CC
100
AcDbEntity
  8
0
 62
0
370
-1
 48
1.0
  6
BYLAYER
100
AcDbLine
 10
212.3199999999999932
 20
79.1944000000000017
 30
0.0
 11
212.3199999999999932
 21
93.045100000000005
 31
0.0
  0
LINE
  5
1CD
100
AcDbEntity
  8
0
 62
0
370
-1
 48
1.0
  6
BYLAYER
100
AcDbLine
 10
193.2700000000000102
 20
93.045100000000005
 30
0.0
 11
207.1189999999999998
 21
93.045100000000005
 31
0.0
  0
LINE
  5
1CE
100
AcDbEntity
  8
0
 62
0
370
-1
 48
1.0
  6
BYLAYER
100
AcDbLine
 10
207.1189999999999998
 20
93.045100000000005
 30
0.0
 11
207.1189999999999998
 21
79.1944000000000017
 31
0.0
  0
LINE
  5
1CF
100
AcDbEntity
  8
0
 62
0
370
-1
 48
1.0
  6
BYLAYER
100
AcDbLine
 10
207.1189999999999998
 20
79.1944000000000017
 30
0.0
 11
193.2700000000000102
 21
79.1944000000000017
 31
0.0
  0
LINE
  5
1D0
100
AcDbEntity
  8
0
 62
0
370
-1
 48
1.0
  6
BYLAYER
100
AcDbLine
 10
193.2700000000000102
 20
79.1944000000000017
 30
0.0
 11
193.2700000000000102
 21
93.045100000000005
 31
0.0
  0
LINE
  5
1D1
100
AcDbEntity
  8
0
 62
0
370
-1
 48
1.0
  6
BYLAYER
100
AcDbLine
 10
174.2199999999999989
 20
93.045100000000005
 30
0.0
 11
188.0689999999999884
 21
93.045100000000005
 31
0.0
  0
LINE
  5
1D2
100
AcDbEntity
  8
0
 62
0
370
-1
 48
1.0
  6
BYLAYER
100
AcDbLine
 10
188.0689999999999884
 20
93.045100000000005
 30
0.0
 11
188.0689999999999884
 21
79.1944000000000017
 31
0.0
  0
LINE
  5
1D3
100
AcDbEntity
  8
0
 62
0
370
-1
 48
1.0
  6
BYLAYER
100
AcDbLine
 10
188.0689999999999884
 20
79.1944000000000017
 30
0.0
 11
174.2199999999999989
 21
79.1944000000000017
 31
0.0
  0
LINE
  5
1D4
100
AcDbEntity
  8
0
 62
0
370
-1
 48
1.0
  6
BYLAYER
100
AcDbLine
 10
174.2199999999999989
 20
79.1944000000000017
 30
0.0
 11
174.2199999999999989
 21
93.045100000000005
 31
0.0
  0
LINE
  5
1D5
100
AcDbEntity
  8
0
 62
0
370
-1
 48
1.0
  6
BYLAYER
100
AcDbLine
 10
155.1699999999999875
 20
93.045100000000005
 30
0.0
 11
169.0190000000000055
 21
93.045100000000005
 31
0.0
  0
LINE
  5
1D6
100
AcDbEntity
  8
0
 62
0
370
-1
 48
1.0
  6
BYLAYER
100
AcDbLine
 10
169.0190000000000055
 20
93.045100000000005
 30
0.0
 11
169.0190000000000055
 21
79.1944000000000017
 31
0.0
  0
LINE
  5
1D7
100
AcDbEntity
  8
0
 62
0
370
-1
 48
1.0
  6
BYLAYER
100
AcDbLine
 10
169.0190000000000055
 20
79.1944000000000017
 30
0.0
 11
155.1699999999999875
 21
79.1944000000000017
 31
0.0
  0
LINE
  5
1D8
100
AcDbEntity
  8
0
 62
0
370
-1
 48
1.0
  6
BYLAYER
100
AcDbLine
 10
155.1699999999999875
 20
79.1944000000000017
 30
0.0
 11
155.1699999999999875
 21
93.045100000000005
 31
0.0
  0
LINE
  5
1D9
100
AcDbEntity
  8
0
 62
0
370
-1
 48
1.0
  6
BYLAYER
100
AcDbLine
 10
136.1200000000000045
 20
93.045100000000005
 30
0.0
 11
149.9689999999999941
 21
93.045100000000005
 31
0.0
  0
LINE
  5
1DA
100
AcDbEntity
  8
0
 62
0
370
-1
 48
1.0
  6
BYLAYER
100
AcDbLine
 10
149.9689999999999941
 20
93.045100000000005
 30
0.0
 11
149.9689999999999941
 21
79.1944000000000017
 31
0.0
  0
LINE
  5
1DB
100
AcDbEntity
  8
0
 62
0
370
-1
 48
1.0
  6
BYLAYER
100
AcDbLine
 10
149.9689999999999941
 20
79.1944000000000017
 30
0.0
 11
136.1200000000000045
 21
79.1944000000000017
 31
0.0
  0
LINE
  5
1DC
100
AcDbEntity
  8
0
 62
0
370
-1
 48
1.0
  6
BYLAYER
100
AcDbLine
 10
136.1200000000000045
 20
79.1944000000000017
 30
0.0
 11
136.1200000000000045
 21
93.045100000000005
 31
0.0
  0
LINE
  5
1DD
100
AcDbEntity
  8
0
 62
0
370
-1
 48
1.0
  6
BYLAYER
100
AcDbLine
 10
117.0699999999999932
 20
93.045100000000005
 30
0.0
 11
130.9190000000000111
 21
93.045100000000005
 31
0.0
  0
LINE
  5
1DE
100
AcDbEntity
  8
0
 62
0
370
-1
 48
1.0
  6
BYLAYER
100
AcDbLine
 10
130.9190000000000111
 20
93.045100000000005
 30
0.0
 11
130.9190000000000111
 21
79.1944000000000017
 31
0.0
  0
LINE
  5
1DF
100
AcDbEntity
  8
0
 62
0
370
-1
 48
1.0
  6
BYLAYER
100
AcDbLine
 10
130.9190000000000111
 20
79.1944000000000017
 30
0.0
 11
117.0699999999999932
 21
79.1944000000000017
 31
0.0
  0
LINE
  5
1E0
100
AcDbEntity
  8
0
 62
0
370
-1
 48
1.0
  6
BYLAYER
100
AcDbLine
 10
117.0699999999999932
 20
79.1944000000000017
 30
0.0
 11
117.0699999999999932
 21
93.045100000000005
 31
0.0
  0
LINE
  5
1E1
100
AcDbEntity
  8
0
 62
0
370
-1
 48
1.0
  6
BYLAYER
100
AcDbLine
 10
98.019999999999996
 20
93.045100000000005
 30
0.0
 11
111.8689999999999998
 21
93.045100000000005
 31
0.0
  0
LINE
  5
1E2
100
AcDbEntity
  8
0
 62
0
370
-1
 48
1.0
  6
BYLAYER
100
AcDbLine
 10
111.8689999999999998
 20
93.045100000000005
 30
0.0
 11
111.8689999999999998
 21
79.1944000000000017
 31
0.0
  0
LINE
  5
1E3
100
AcDbEntity
  8
0
 62
0
370
-1
 48
1.0
  6
BYLAYER
100
AcDbLine
 10
111.8689999999999998
 20
79.1944000000000017
 30
0.0
 11
98.019999999999996
 21
79.1944000000000017
 31
0.0
  0
LINE
  5
1E4
100
AcDbEntity
  8
0
 62
0
370
-1
 48
1.0
  6
BYLAYER
100
AcDbLine
 10
98.019999999999996
 20
79.1944000000000017
 30
0.0
 11
98.019999999999996
 21
93.045100000000005
 31
0.0
  0
LINE
  5
1E5
100
AcDbEntity
  8
0
 62
0
370
-1
 48
1.0
  6
BYLAYER
100
AcDbLine
 10
78.9699999999999989
 20
93.045100000000005
 30
0.0
 11
92.8190000000000026
 21
93.045100000000005
 31
0.0
  0
LINE
  5
1E6
100
AcDbEntity
  8
0
 62
0
370
-1
 48
1.0
  6
BYLAYER
100
AcDbLine
 10
92.8190000000000026
 20
93.045100000000005
 30
0.0
 11
92.8190000000000026
 21
79.1944000000000017
 31
0.0
  0
LINE
  5
1E7
100
AcDbEntity
  8
0
 62
0
370
-1
 48
1.0
  6
BYLAYER
100
AcDbLine
 10
92.8190000000000026
 20
79.1944000000000017
 30
0.0
 11
78.9699999999999989
 21
79.1944000000000017
 31
0.0
  0
LINE
  5
1E8
100
AcDbEntity
  8
0
 62
0
370
-1
 48
1.0
  6
BYLAYER
100
AcDbLine
 10
78.9699999999999989
 20
79.1944000000000017
 30
0.0
 11
78.9699999999999989
 21
93.045100000000005
 31
0.0
  0
LINE
  5
1E9
100
AcDbEntity
  8
0
 62
0
370
-1
 48
1.0
  6
BYLAYER
100
AcDbLine
 10
59.9200000000000017
 20
93.045100000000005
 30
0.0
 11
73.7690000000000055
 21
93.045100000000005
 31
0.0
  0
LINE
  5
1EA
100
AcDbEntity
  8
0
 62
0
370
-1
 48
1.0
  6
BYLAYER
100
AcDbLine
 10
73.7690000000000055
 20
93.045100000000005
 30
0.0
 11
73.7690000000000055
 21
79.1944000000000017
 31
0.0
  0
LINE
  5
1EB
100
AcDbEntity
  8
0
 62
0
370
-1
 48
1.0
  6
BYLAYER
100
AcDbLine
 10
73.7690000000000055
 20
79.1944000000000017
 30
0.0
 11
59.9200000000000017
 21
79.1944000000000017
 31
0.0
  0
LINE
  5
1EC
100
AcDbEntity
  8
0
 62
0
370
-1
 48
1.0
  6
BYLAYER
100
AcDbLine
 10
59.9200000000000017
 20
79.1944000000000017
 30
0.0
 11
59.9200000000000017
 21
93.045100000000005
 31
0.0
  0
LINE
  5
1ED
100
AcDbEntity
  8
0
 62
0
370
-1
 48
1.0
  6
BYLAYER
100
AcDbLine
 10
40.8699999999999974
 20
93.045100000000005
 30
0.0
 11
54.7190000000000012
 21
93.045100000000005
 31
0.0
  0
LINE
  5
1EE
100
AcDbEntity
  8
0
 62
0
370
-1
 48
1.0
  6
BYLAYER
100
AcDbLine
 10
54.7190000000000012
 20
93.045100000000005
 30
0.0
 11
54.7190000000000012
 21
79.1944000000000017
 31
0.0
  0
LINE
  5
1EF
100
AcDbEntity
  8
0
 62
0
370
-1
 48
1.0
  6
BYLAYER
100
AcDbLine
 10
54.7190000000000012
 20
79.1944000000000017
 30
0.0
 11
40.8699999999999974
 21
79.1944000000000017
 31
0.0
  0
LINE
  5
1F0
100
AcDbEntity
  8
0
 62
0
370
-1
 48
1.0
  6
BYLAYER
100
AcDbLine
 10
40.8699999999999974
 20
79.1944000000000017
 30
0.0
 11
40.8699999999999974
 21
93.045100000000005
 31
0.0
  0
LINE
  5
1F1
100
AcDbEntity
  8
0
 62
0
370
-1
 48
1.0
  6
BYLAYER
100
AcDbLine
 10
21.8199000000000005
 20
93.045100000000005
 30
0.0
 11
35.6689999999999969
 21
93.045100000000005
 31
0.0
  0
LINE
  5
1F2
100
AcDbEntity
  8
0
 62
0
370
-1
 48
1.0
  6
BYLAYER
100
AcDbLine
 10
35.6689999999999969
 20
93.045100000000005
 30
0.0
 11
35.6689999999999969
 21
79.1944000000000017
 31
0.0
  0
LINE
  5
1F3
100
AcDbEntity
  8
0
 62
0
370
-1
 48
1.0
  6
BYLAYER
100
AcDbLine
 10
35.6689999999999969
 20
79.1944000000000017
 30
0.0
 11
21.8199000000000005
 21
79.1944000000000017
 31
0.0
  0
LINE
  5
1F4
100
AcDbEntity
  8
0
 62
0
370
-1
 48
1.0
  6
BYLAYER
100
AcDbLine
 10
21.8199000000000005
 20
79.1944000000000017
 30
0.0
 11
21.8199000000000005
 21
93.045100000000005
 31
0.0
  0
LINE
  5
1F5
100
AcDbEntity
  8
0
 62
0
370
-1
 48
1.0
  6
BYLAYER
100
AcDbLine
 10
2.76986
 20
93.045100000000005
 30
0.0
 11
16.6191999999999993
 21
93.045100000000005
 31
0.0
  0
LINE
  5
1F6
100
AcDbEntity
  8
0
 62
0
370
-1
 48
1.0
  6
BYLAYER
100
AcDbLine
 10
16.6191999999999993
 20
93.045100000000005
 30
0.0
 11
16.6191999999999993
 21
79.1944000000000017
 31
0.0
  0
LINE
  5
1F7
100
AcDbEntity
  8
0
 62
0
370
-1
 48
1.0
  6
BYLAYER
100
AcDbLine
 10
16.6191999999999993
 20
79.1944000000000017
 30
0.0
 11
2.76986
 21
79.1944000000000017
 31
0.0
  0
LINE
  5
1F8
100
AcDbEntity
  8
0
 62
0
370
-1
 48
1.0
  6
BYLAYER
100
AcDbLine
 10
2.76986
 20
79.1944000000000017
 30
0.0
 11
2.76986
 21
93.045100000000005
 31
0.0
  0
LINE
  5
1F9
100
AcDbEntity
  8
0
 62
0
370
-1
 48
1.0
  6
BYLAYER
100
AcDbLine
 10
269.4700000000000273
 20
113.9989999999999952
 30
0.0
 11
283.3190000000000168
 21
113.9989999999999952
 31
0.0
  0
LINE
  5
1FA
100
AcDbEntity
  8
0
 62
0
370
-1
 48
1.0
  6
BYLAYER
100
AcDbLine
 10
283.3190000000000168
 20
113.9989999999999952
 30
0.0
 11
283.3190000000000168
 21
100.1500000000000057
 31
0.0
  0
LINE
  5
1FB
100
AcDbEntity
  8
0
 62
0
370
-1
 48
1.0
  6
BYLAYER
100
AcDbLine
 10
283.3190000000000168
 20
100.1500000000000057
 30
0.0
 11
269.4700000000000273
 21
100.1500000000000057
 31
0.0
  0
LINE
  5
1FC
100
AcDbEntity
  8
0
 62
0
370
-1
 48
1.0
  6
BYLAYER
100
AcDbLine
 10
269.4700000000000273
 20
100.1500000000000057
 30
0.0
 11
269.4700000000000273
 21
113.9989999999999952
 31
0.0
  0
LINE
  5
1FD
100
AcDbEntity
  8
0
 62
0
370
-1
 48
1.0
  6
BYLAYER
100
AcDbLine
 10
250.4199999999999875
 20
113.9989999999999952
 30
0.0
 11
264.2690000000000055
 21
113.9989999999999952
 31
0.0
  0
LINE
  5
1FE
100
AcDbEntity
  8
0
 62
0
370
-1
 48
1.0
  6
BYLAYER
100
AcDbLine
 10
264.2690000000000055
 20
113.9989999999999952
 30
0.0
 11
264.2690000000000055
 21
100.1500000000000057
 31
0.0
  0
LINE
  5
1FF
100
AcDbEntity
  8
0
 62
0
370
-1
 48
1.0
  6
BYLAYER
100
AcDbLine
 10
264.2690000000000055
 20
100.1500000000000057
 30
0.0
 11
250.4199999999999875
 21
100.1500000000000057
 31
0.0
  0
LINE
  5
200
100
AcDbEntity
  8
0
 62
0
370
-1
 48
1.0
  6
BYLAYER
100
AcDbLine
 10
250.4199999999999875
 20
100.1500000000000057
 30
0.0
 11
250.4199999999999875
 21
113.9989999999999952
 31
0.0
  0
LINE
  5
201
100
AcDbEntity
  8
0
 62
0
370
-1
 48
1.0
  6
BYLAYER
100
AcDbLine
 10
221.8449999999999989
 20
113.9989999999999952
 30
0.0
 11
235.6939999999999884
 21
113.9989999999999952
 31
0.0
  0
LINE
  5
202
100
AcDbEntity
  8
0
 62
0
370
-1
 48
1.0
  6
BYLAYER
100
AcDbLine
 10
235.6939999999999884
 20
113.9989999999999952
 30
0.0
 11
235.6939999999999884
 21
100.1500000000000057
 31
0.0
  0
LINE
  5
203
100
AcDbEntity
  8
0
 62
0
370
-1
 48
1.0
  6
BYLAYER
100
AcDbLine
 10
235.6939999999999884
 20
100.1500000000000057
 30
0.0
 11
221.8449999999999989
 21
100.1500000000000057
 31
0.0
  0
LINE
  5
204
100
AcDbEntity
  8
0
 62
0
370
-1
 48
1.0
  6
BYLAYER
100
AcDbLine
 10
221.8449999999999989
 20
100.1500000000000057
 30
0.0
 11
221.8449999999999989
 21
113.9989999999999952
 31
0.0
  0
LINE
  5
205
100
AcDbEntity
  8
0
 62
0
370
-1
 48
1.0
  6
BYLAYER
100
AcDbLine
 10
202.7949999999999875
 20
113.9989999999999952
 30
0.0
 11
216.6440000000000055
 21
113.9989999999999952
 31
0.0
  0
LINE
  5
206
100
AcDbEntity
  8
0
 62
0
370
-1
 48
1.0
  6
BYLAYER
100
AcDbLine
 10
216.6440000000000055
 20
113.9989999999999952
 30
0.0
 11
216.6440000000000055
 21
100.1500000000000057
 31
0.0
  0
LINE
  5
207
100
AcDbEntity
  8
0
 62
0
370
-1
 48
1.0
  6
BYLAYER
100
AcDbLine
 10
216.6440000000000055
 20
100.1500000000000057
 30
0.0
 11
202.7949999999999875
 21
100.1500000000000057
 31
0.0
  0
LINE
  5
208
100
AcDbEntity
  8
0
 62
0
370
-1
 48
1.0
  6
BYLAYER
100
AcDbLine
 10
202.7949999999999875
 20
100.1500000000000057
 30
0.0
 11
202.7949999999999875
 21
113.9989999999999952
 31
0.0
  0
LINE
  5
209
100
AcDbEntity
  8
0
 62
0
370
-1
 48
1.0
  6
BYLAYER
100
AcDbLine
 10
183.7450000000000045
 20
113.9989999999999952
 30
0.0
 11
197.5939999999999941
 21
113.9989999999999952
 31
0.0
  0
LINE
  5
20A
100
AcDbEntity
  8
0
 62
0
370
-1
 48
1.0
  6
BYLAYER
100
AcDbLine
 10
197.5939999999999941
 20
113.9989999999999952
 30
0.0
 11
197.5939999999999941
 21
100.1500000000000057
 31
0.0
  0
LINE
  5
20B
100
AcDbEntity
  8
0
 62
0
370
-1
 48
1.0
  6
BYLAYER
100
AcDbLine
 10
197.5939999999999941
 20
100.1500000000000057
 30
0.0
 11
183.7450000000000045
 21
100.1500000000000057
 31
0.0
  0
LINE
  5
20C
100
AcDbEntity
  8
0
 62
0
370
-1
 48
1.0
  6
BYLAYER
100
AcDbLine
 10
183.7450000000000045
 20
100.1500000000000057
 30
0.0
 11
183.7450000000000045
 21
113.9989999999999952
 31
0.0
  0
LINE
  5
20D
100
AcDbEntity
  8
0
 62
0
370
-1
 48
1.0
  6
BYLAYER
100
AcDbLine
 10
164.6949999999999932
 20
113.9989999999999952
 30
0.0
 11
178.5440000000000111
 21
113.9989999999999952
 31
0.0
  0
LINE
  5
20E
100
AcDbEntity
  8
0
 62
0
370
-1
 48
1.0
  6
BYLAYER
100
AcDbLine
 10
178.5440000000000111
 20
113.9989999999999952
 30
0.0
 11
178.5440000000000111
 21
100.1500000000000057
 31
0.0
  0
LINE
  5
20F
100
AcDbEntity
  8
0
 62
0
370
-1
 48
1.0
  6
BYLAYER
100
AcDbLine
 10
178.5440000000000111
 20
100.1500000000000057
 30
0.0
 11
164.6949999999999932
 21
100.1500000000000057
 31
0.0
  0
LINE
  5
210
100
AcDbEntity
  8
0
 62
0
370
-1
 48
1.0
  6
BYLAYER
100
AcDbLine
 10
164.6949999999999932
 20
100.1500000000000057
 30
0.0
 11
164.6949999999999932
 21
113.9989999999999952
 31
0.0
  0
LINE
  5
211
100
AcDbEntity
  8
0
 62
0
370
-1
 48
1.0
  6
BYLAYER
100
AcDbLine
 10
140.8810000000000002
 20
113.9989999999999952
 30
0.0
 11
154.7319999999999993
 21
113.9989999999999952
 31
0.0
  0
LINE
  5
212
100
AcDbEntity
  8
0
 62
0
370
-1
 48
1.0
  6
BYLAYER
100
AcDbLine
 10
154.7319999999999993
 20
113.9989999999999952
 30
0.0
 11
154.7319999999999993
 21
100.1500000000000057
 31
0.0
  0
LINE
  5
213
100
AcDbEntity
  8
0
 62
0
370
-1
 48
1.0
  6
BYLAYER
100
AcDbLine
 10
154.7319999999999993
 20
100.1500000000000057
 30
0.0
 11
140.8810000000000002
 21
100.1500000000000057
 31
0.0
  0
LINE
  5
214
100
AcDbEntity
  8
0
 62
0
370
-1
 48
1.0
  6
BYLAYER
100
AcDbLine
 10
140.8810000000000002
 20
100.1500000000000057
 30
0.0
 11
140.8810000000000002
 21
113.9989999999999952
 31
0.0
  0
LINE
  5
215
100
AcDbEntity
  8
0
 62
0
370
-1
 48
1.0
  6
BYLAYER
100
AcDbLine
 10
121.8310000000000031
 20
113.9989999999999952
 30
0.0
 11
135.6819999999999879
 21
113.9989999999999952
 31
0.0
  0
LINE
  5
216
100
AcDbEntity
  8
0
 62
0
370
-1
 48
1.0
  6
BYLAYER
100
AcDbLine
 10
135.6819999999999879
 20
113.9989999999999952
 30
0.0
 11
135.6819999999999879
 21
100.1500000000000057
 31
0.0
  0
LINE
  5
217
100
AcDbEntity
  8
0
 62
0
370
-1
 48
1.0
  6
BYLAYER
100
AcDbLine
 10
135.6819999999999879
 20
100.1500000000000057
 30
0.0
 11
121.8310000000000031
 21
100.1500000000000057
 31
0.0
  0
LINE
  5
218
100
AcDbEntity
  8
0
 62
0
370
-1
 48
1.0
  6
BYLAYER
100
AcDbLine
 10
121.8310000000000031
 20
100.1500000000000057
 30
0.0
 11
121.8310000000000031
 21
113.9989999999999952
 31
0.0
  0
LINE
  5
219
100
AcDbEntity
  8
0
 62
0
370
-1
 48
1.0
  6
BYLAYER
100
AcDbLine
 10
102.7810000000000059
 20
113.9989999999999952
 30
0.0
 11
116.632000000000005
 21
113.9989999999999952
 31
0.0
  0
LINE
  5
21A
100
AcDbEntity
  8
0
 62
0
370
-1
 48
1.0
  6
BYLAYER
100
AcDbLine
 10
116.632000000000005
 20
113.9989999999999952
 30
0.0
 11
116.632000000000005
 21
100.1500000000000057
 31
0.0
  0
LINE
  5
21B
100
AcDbEntity
  8
0
 62
0
370
-1
 48
1.0
  6
BYLAYER
100
AcDbLine
 10
116.632000000000005
 20
100.1500000000000057
 30
0.0
 11
102.7810000000000059
 21
100.1500000000000057
 31
0.0
  0
LINE
  5
21C
100
AcDbEntity
  8
0
 62
0
370
-1
 48
1.0
  6
BYLAYER
100
AcDbLine
 10
102.7810000000000059
 20
100.1500000000000057
 30
0.0
 11
102.7810000000000059
 21
113.9989999999999952
 31
0.0
  0
LINE
  5
21D
100
AcDbEntity
  8
0
 62
0
370
-1
 48
1.0
  6
BYLAYER
100
AcDbLine
 10
83.7310999999999979
 20
113.9989999999999952
 30
0.0
 11
97.5815000000000055
 21
113.9989999999999952
 31
0.0
  0
LINE
  5
21E
100
AcDbEntity
  8
0
 62
0
370
-1
 48
1.0
  6
BYLAYER
100
AcDbLine
 10
97.5815000000000055
 20
113.9989999999999952
 30
0.0
 11
97.5815000000000055
 21
100.1500000000000057
 31
0.0
  0
LINE
  5
21F
100
AcDbEntity
  8
0
 62
0
370
-1
 48
1.0
  6
BYLAYER
100
AcDbLine
 10
97.5815000000000055
 20
100.1500000000000057
 30
0.0
 11
83.7310999999999979
 21
100.1500000000000057
 31
0.0
  0
LINE
  5
220
100
AcDbEntity
  8
0
 62
0
370
-1
 48
1.0
  6
BYLAYER
100
AcDbLine
 10
83.7310999999999979
 20
100.1500000000000057
 30
0.0
 11
83.7310999999999979
 21
113.9989999999999952
 31
0.0
  0
LINE
  5
221
100
AcDbEntity
  8
0
 62
0
370
-1
 48
1.0
  6
BYLAYER
100
AcDbLine
 10
59.9200000000000017
 20
113.9989999999999952
 30
0.0
 11
73.7690000000000055
 21
113.9989999999999952
 31
0.0
  0
LINE
  5
222
100
AcDbEntity
  8
0
 62
0
370
-1
 48
1.0
  6
BYLAYER
100
AcDbLine
 10
73.7690000000000055
 20
113.9989999999999952
 30
0.0
 11
73.7690000000000055
 21
100.1500000000000057
 31
0.0
  0
LINE
  5
223
100
AcDbEntity
  8
0
 62
0
370
-1
 48
1.0
  6
BYLAYER
100
AcDbLine
 10
73.7690000000000055
 20
100.1500000000000057
 30
0.0
 11
59.9200000000000017
 21
100.1500000000000057
 31
0.0
  0
LINE
  5
224
100
AcDbEntity
  8
0
 62
0
370
-1
 48
1.0
  6
BYLAYER
100
AcDbLine
 10
59.9200000000000017
 20
100.1500000000000057
 30
0.0
 11
59.9200000000000017
 21
113.9989999999999952
 31
0.0
  0
LINE
  5
225
100
AcDbEntity
  8
0
 62
0
370
-1
 48
1.0
  6
BYLAYER
100
AcDbLine
 10
40.8699999999999974
 20
113.9989999999999952
 30
0.0
 11
54.7190000000000012
 21
113.9989999999999952
 31
0.0
  0
LINE
  5
226
100
AcDbEntity
  8
0
 62
0
370
-1
 48
1.0
  6
BYLAYER
100
AcDbLine
 10
54.7190000000000012
 20
113.9989999999999952
 30
0.0
 11
54.7190000000000012
 21
100.1500000000000057
 31
0.0
  0
LINE
  5
227
100
AcDbEntity
  8
0
 62
0
370
-1
 48
1.0
  6
BYLAYER
100
AcDbLine
 10
54.7190000000000012
 20
100.1500000000000057
 30
0.0
 11
40.8699999999999974
 21
100.1500000000000057
 31
0.0
  0
LINE
  5
228
100
AcDbEntity
  8
0
 62
0
370
-1
 48
1.0
  6
BYLAYER
100
AcDbLine
 10
40.8699999999999974
 20
100.1500000000000057
 30
0.0
 11
40.8699999999999974
 21
113.9989999999999952
 31
0.0
  0
LINE
  5
229
100
AcDbEntity
  8
0
 62
0
370
-1
 48
1.0
  6
BYLAYER
100
AcDbLine
 10
21.8199000000000005
 20
113.9989999999999952
 30
0.0
 11
35.6689999999999969
 21
113.9989999999999952
 31
0.0
  0
LINE
  5
22A
100
AcDbEntity
  8
0
 62
0
370
-1
 48
1.0
  6
BYLAYER
100
AcDbLine
 10
35.6689999999999969
 20
113.9989999999999952
 30
0.0
 11
35.6689999999999969
 21
100.1500000000000057
 31
0.0
  0
LINE
  5
22B
100
AcDbEntity
  8
0
 62
0
370
-1
 48
1.0
  6
BYLAYER
100
AcDbLine
 10
35.6689999999999969
 20
100.1500000000000057
 30
0.0
 11
21.8199000000000005
 21
100.1500000000000057
 31
0.0
  0
LINE
  5
22C
100
AcDbEntity
  8
0
 62
0
370
-1
 48
1.0
  6
BYLAYER
100
AcDbLine
 10
21.8199000000000005
 20
100.1500000000000057
 30
0.0
 11
21.8199000000000005
 21
113.9989999999999952
 31
0.0
  0
LINE
  5
22D
100
AcDbEntity
  8
0
 62
0
370
-1
 48
1.0
  6
BYLAYER
100
AcDbLine
 10
2.76986
 20
113.9989999999999952
 30
0.0
 11
16.6191999999999993
 21
113.9989999999999952
 31
0.0
  0
LINE
  5
22E
100
AcDbEntity
  8
0
 62
0
370
-1
 48
1.0
  6
BYLAYER
100
AcDbLine
 10
16.6191999999999993
 20
113.9989999999999952
 30
0.0
 11
16.6191999999999993
 21
100.1500000000000057
 31
0.0
  0
LINE
  5
22F
100
AcDbEntity
  8
0
 62
0
370
-1
 48
1.0
  6
BYLAYER
100
AcDbLine
 10
16.6191999999999993
 20
100.1500000000000057
 30
0.0
 11
2.76986
 21
100.1500000000000057
 31
0.0
  0
LINE
  5
230
100
AcDbEntity
  8
0
 62
0
370
-1
 48
1.0
  6
BYLAYER
100
AcDbLine
 10
2.76986
 20
100.1500000000000057
 30
0.0
 11
2.76986
 21
113.9989999999999952
 31
0.0
  0
LINE
  5
231
100
AcDbEntity
  8
0
 62
256
370
-1
 48
1.0
  6
BYLAYER
100
AcDbLine
 10
-3.9049153999999997
 20
120.6740000000000066
 30
0.0
 11
289.9950000000000614
 21
120.6740000000000066
 31
0.0
  0
LINE
  5
232
100
AcDbEntity
  8
0
 62
256
370
-1
 48
1.0
  6
BYLAYER
100
AcDbLine
 10
289.9950000000000045
 20
-3.681673
 30
0.0
 11
-3.9049153999999362
 21
-3.681673
 31
0.0
  0
LINE
  5
233
100
AcDbEntity
  8
0
 62
256
370
-1
 48
1.0
  6
BYLAYER
100
AcDbLine
 10
289.9950000000000045
 20
120.674000000000035
 30
0.0
 11
289.9950000000000045
 21
-3.6816730000000035
 31
0.0
  0
LINE
  5
234
100
AcDbEntity
  8
0
 62
256
370
-1
 48
1.0
  6
BYLAYER
100
AcDbLine
 10
-3.9049154000000001
 20
-3.6816730000000004
 30
0.0
 11
-3.9049154000000001
 21
120.6740000000000066
 31
0.0
  0
ENDSEC
  0
SECTION
  2
OBJECTS
  0
DICTIONARY
  5
C
100
AcDbDictionary
280
0
281
1
  3
ACAD_GROUP
350
D
  3
ACAD_LAYOUT
350
1A
  3
ACAD_MLINESTYLE
350
17
  3
ACAD_PLOTSETTINGS
350
19
  3
ACAD_PLOTSTYLENAME
350
E
  3
AcDbVariableDictionary
350
235
  3
QCAD_OBJECTS
350
236
  0
DICTIONARY
  5
D
100
AcDbDictionary
280
0
281
1
  0
ACDBDICTIONARYWDFLT
  5
E
100
AcDbDictionary
281
1
  3
Normal
350
F
100
AcDbDictionaryWithDefault
340
F
  0
ACDBPLACEHOLDER
  5
F
  0
DICTIONARY
  5
17
100
AcDbDictionary
280
0
281
1
  3
Standard
350
18
  0
MLINESTYLE
  5
18
100
AcDbMlineStyle
  2
STANDARD
 70
0
  3

 62
256
 51
90.0
 52
90.0
 71
2
 49
0.5
 62
256
  6
BYLAYER
 49
-0.5
 62
256
  6
BYLAYER
  0
DICTIONARY
  5
19
100
AcDbDictionary
280
0
281
1
  0
DICTIONARY
  5
1A
100
AcDbDictionary
281
1
  3
Layout1
350
1E
  3
Layout2
350
26
  3
Model
350
22
  0
LAYOUT
  5
1E
100
AcDbPlotSettings
  1

  2
none_device
  4

  6

 40
0.0
 41
0.0
 42
0.0
 43
0.0
 44
0.0
 45
0.0
 46
0.0
 47
0.0
 48
0.0
 49
0.0
140
0.0
141
0.0
142
1.0
143
1.0
 70
688
 72
0
 73
0
 74
5
  7

 75
16
147
1.0
148
0.0
149
0.0
100
AcDbLayout
  1
Layout1
 70
1
 71
1
 10
0.0
 20
0.0
 11
420.0
 21
297.0
 12
0.0
 22
0.0
 32
0.0
 14
100000000000000000000.0
 24
100000000000000000000.0
 34
100000000000000000000.0
 15
-100000000000000000000.0
 25
-100000000000000000000.0
 35
-100000000000000000000.0
146
0.0
 13
0.0
 23
0.0
 33
0.0
 16
1.0
 26
0.0
 36
0.0
 17
0.0
 27
1.0
 37
0.0
 76
0
330
1B
  0
LAYOUT
  5
22
100
AcDbPlotSettings
  1

  2
none_device
  4

  6

 40
0.0
 41
0.0
 42
0.0
 43
0.0
 44
0.0
 45
0.0
 46
0.0
 47
0.0
 48
0.0
 49
0.0
140
0.0
141
0.0
142
1.0
143
1.0
 70
1712
 72
0
 73
0
 74
0
  7

 75
0
147
1.0
148
0.0
149
0.0
100
AcDbLayout
  1
Model
 70
1
 71
0
 10
0.0
 20
0.0
 11
12.0
 21
9.0
 12
0.0
 22
0.0
 32
0.0
 14
0.0
 24
0.0
 34
0.0
 15
0.0
 25
0.0
 35
0.0
146
0.0
 13
0.0
 23
0.0
 33
0.0
 16
1.0
 26
0.0
 36
0.0
 17
0.0
 27
1.0
 37
0.0
 76
0
330
1F
  0
LAYOUT
  5
26
100
AcDbPlotSettings
  1

  2
none_device
  4

  6

 40
0.0
 41
0.0
 42
0.0
 43
0.0
 44
0.0
 45
0.0
 46
0.0
 47
0.0
 48
0.0
 49
0.0
140
0.0
141
0.0
142
1.0
143
1.0
 70
688
 72
0
 73
0
 74
5
  7

 75
16
147
1.0
148
0.0
149
0.0
100
AcDbLayout
  1
Layout2
 70
1
 71
2
 10
0.0
 20
0.0
 11
12.0
 21
9.0
 12
0.0
 22
0.0
 32
0.0
 14
0.0
 24
0.0
 34
0.0
 15
0.0
 25
0.0
 35
0.0
146
0.0
 13
0.0
 23
0.0
 33
0.0
 16
1.0
 26
0.0
 36
0.0
 17
0.0
 27
1.0
 37
0.0
 76
0
330
23
  0
DICTIONARY
  5
235
100
AcDbDictionary
281
1
  3
DIMASSOC
350
238
  3
HIDETEXT
350
237
  0
DICTIONARYVAR
  5
237
100
DictionaryVariables
280
0
  1
2
  0
DICTIONARYVAR
  5
238
100
DictionaryVariables
280
0
  1
1
  0
DICTIONARY
  5
236
100
AcDbDictionary
281
1
  3
ColorSettings/BackgroundColor
350
239
  3
ColorSettings/ColorMode
350
23A
  3
Grid/DisplayGrid00
350
23B
  3
Grid/DisplayGrid01
350
23C
  3
Grid/DisplayGrid02
350
23D
  3
Grid/DisplayGrid03
350
23E
  3
Grid/GridSpacingX00
350
23F
  3
Grid/GridSpacingX01
350
240
  3
Grid/GridSpacingX02
350
241
  3
Grid/GridSpacingX03
350
242
  3
Grid/GridSpacingY00
350
243
  3
Grid/GridSpacingY01
350
244
  3
Grid/GridSpacingY02
350
245
  3
Grid/GridSpacingY03
350
246
  3
Grid/IsometricGrid00
350
247
  3
Grid/IsometricGrid01
350
248
  3
Grid/IsometricGrid02
350
249
  3
Grid/IsometricGrid03
350
24A
  3
Grid/IsometricProjection00
350
24B
  3
Grid/IsometricProjection01
350
24C
  3
Grid/IsometricProjection02
350
24D
  3
Grid/IsometricProjection03
350
24E
  3
Grid/MetaGridSpacingX00
350
24F
  3
Grid/MetaGridSpacingX01
350
250
  3
Grid/MetaGridSpacingX02
350
251
  3
Grid/MetaGridSpacingX03
350
252
  3
Grid/MetaGridSpacingY00
350
253
  3
Grid/MetaGridSpacingY01
350
254
  3
Grid/MetaGridSpacingY02
350
255
  3
Grid/MetaGridSpacingY03
350
256
  3
MultiPageSettings/Columns
350
257
  3
MultiPageSettings/GlueMarginsBottom
350
258
  3
MultiPageSettings/GlueMarginsLeft
350
259
  3
MultiPageSettings/GlueMarginsRight
350
25A
  3
MultiPageSettings/GlueMarginsTop
350
25B
  3
MultiPageSettings/PrintCropMarks
350
25C
  3
MultiPageSettings/Rows
350
25D
  3
PageSettings/OffsetX
350
25E
  3
PageSettings/OffsetY
350
25F
  3
PageSettings/PageOrientation
350
260
  3
PageSettings/PaperHeight
350
261
  3
PageSettings/PaperWidth
350
262
  3
PageSettings/Scale
350
263
  3
PageSettings/ShowPaperBorders
350
264
  3
PageTagSettings/EnablePageTags
350
265
  3
PageTagSettings/TagAlignment
350
266
  3
PageTagSettings/TagFont
350
267
  3
PageTagSettings/TagPosition
350
268
  3
QCADVersion
350
269
  3
UnitSettings/PaperUnit
350
26A
  3
ViewportCenter
350
26B
  3
ViewportHeight
350
26C
  3
ViewportWidth
350
26D
  0
XRECORD
  5
239
330
236
100
AcDbXrecord
280
1
1000
White
  0
XRECORD
  5
23A
330
236
100
AcDbXrecord
280
1
1000
FullColor
  0
XRECORD
  5
23B
330
236
100
AcDbXrecord
280
1
290
1
  0
XRECORD
  5
23C
330
236
100
AcDbXrecord
280
1
290
1
  0
XRECORD
  5
23D
330
236
100
AcDbXrecord
280
1
290
1
  0
XRECORD
  5
23E
330
236
100
AcDbXrecord
280
1
290
1
  0
XRECORD
  5
23F
330
236
100
AcDbXrecord
280
1
1000
auto
  0
XRECORD
  5
240
330
236
100
AcDbXrecord
280
1
1000
auto
  0
XRECORD
  5
241
330
236
100
AcDbXrecord
280
1
1000
auto
  0
XRECORD
  5
242
330
236
100
AcDbXrecord
280
1
1000
auto
  0
XRECORD
  5
243
330
236
100
AcDbXrecord
280
1
1000
auto
  0
XRECORD
  5
244
330
236
100
AcDbXrecord
280
1
1000
auto
  0
XRECORD
  5
245
330
236
100
AcDbXrecord
280
1
1000
auto
  0
XRECORD
  5
246
330
236
100
AcDbXrecord
280
1
1000
auto
  0
XRECORD
  5
247
330
236
100
AcDbXrecord
280
1
290
0
  0
XRECORD
  5
248
330
236
100
AcDbXrecord
280
1
290
0
  0
XRECORD
  5
249
330
236
100
AcDbXrecord
280
1
290
0
  0
XRECORD
  5
24A
330
236
100
AcDbXrecord
280
1
290
0
  0
XRECORD
  5
24B
330
236
100
AcDbXrecord
280
1
 90
65537
  0
XRECORD
  5
24C
330
236
100
AcDbXrecord
280
1
 90
65537
  0
XRECORD
  5
24D
330
236
100
AcDbXrecord
280
1
 90
65537
  0
XRECORD
  5
24E
330
236
100
AcDbXrecord
280
1
 90
65537
  0
XRECORD
  5
24F
330
236
100
AcDbXrecord
280
1
1000
auto
  0
XRECORD
  5
250
330
236
100
AcDbXrecord
280
1
1000
auto
  0
XRECORD
  5
251
330
236
100
AcDbXrecord
280
1
1000
auto
  0
XRECORD
  5
252
330
236
100
AcDbXrecord
280
1
1000
auto
  0
XRECORD
  5
253
330
236
100
AcDbXrecord
280
1
1000
auto
  0
XRECORD
  5
254
330
236
100
AcDbXrecord
280
1
1000
auto
  0
XRECORD
  5
255
330
236
100
AcDbXrecord
280
1
1000
auto
  0
XRECORD
  5
256
330
236
100
AcDbXrecord
280
1
1000
auto
  0
XRECORD
  5
257
330
236
100
AcDbXrecord
280
1
 90
1
  0
XRECORD
  5
258
330
236
100
AcDbXrecord
280
1
 40
10.0
  0
XRECORD
  5
259
330
236
100
AcDbXrecord
280
1
 40
10.0
  0
XRECORD
  5
25A
330
236
100
AcDbXrecord
280
1
 40
10.0
  0
XRECORD
  5
25B
330
236
100
AcDbXrecord
280
1
 40
10.0
  0
XRECORD
  5
25C
330
236
100
AcDbXrecord
280
1
290
0
  0
XRECORD
  5
25D
330
236
100
AcDbXrecord
280
1
 90
1
  0
XRECORD
  5
25E
330
236
100
AcDbXrecord
280
1
 40
0.0
  0
XRECORD
  5
25F
330
236
100
AcDbXrecord
280
1
 40
0.0
  0
XRECORD
  5
260
330
236
100
AcDbXrecord
280
1
1000
Portrait
  0
XRECORD
  5
261
330
236
100
AcDbXrecord
280
1
 40
297.0
  0
XRECORD
  5
262
330
236
100
AcDbXrecord
280
1
 40
210.0
  0
XRECORD
  5
263
330
236
100
AcDbXrecord
280
1
1000
1:1
  0
XRECORD
  5
264
330
236
100
AcDbXrecord
280
1
290
1
  0
XRECORD
  5
265
330
236
100
AcDbXrecord
280
1
290
0
  0
XRECORD
  5
266
330
236
100
AcDbXrecord
280
1
1000
Inside
  0
XRECORD
  5
267
330
236
100
AcDbXrecord
280
1
1000
Arial,10,-1,5,50,0,0,0,0,0
  0
XRECORD
  5
268
330
236
100
AcDbXrecord
280
1
1000
TopLeft
  0
XRECORD
  5
269
330
236
100
AcDbXrecord
280
1
1000
3.24.3
  0
XRECORD
  5
26A
330
236
100
AcDbXrecord
280
1
 90
4
  0
XRECORD
  5
26C
330
236
100
AcDbXrecord
280
1
 40
260.9257218486679335
  0
XRECORD
  5
26D
330
236
100
AcDbXrecord
280
1
 40
424.4278787213721671
  0
ENDSEC
  0
EOF
